<svg xmlns="http://www.w3.org/2000/svg" style="display: none;"><symbol id="megaphone" viewBox="0 0 2666.66 2666.66"><title>megaphone</title><circle cx="1333.33" cy="1333.33" fill="#00b389" r="1333.33"/><g fill="#fefefe"><path d="m762.86 1745.31c-101.95 0-193.3-68.95-220.07-168.85l-46.81-174.66c-32.51-121.33 39.76-246.49 161.09-279l200.92-53.83c25.09-6.73 173.58 612.37 164.72 614.74-59.18 15.81-208 61.6-259.85 61.6zm-21.08-158.33c-44.21 0-83.08-29.78-94.5-72.43l-29.86-111.42c-13.94-52.02 17.09-105.75 69.11-119.69l100.64-26.97c10.56-2.81 21.41 3.44 24.25 14.01l70.19 261.98c2.83 10.54-3.43 21.41-14.01 24.25-26.84 7.19-103.07 30.27-125.82 30.27zm36.51-287.14-81.52 21.84c-30.87 8.28-49.38 40.3-41.1 71.19l29.86 111.43c8.3 30.98 40.28 49.37 71.19 41.1l81.52-21.84-59.94-223.72z"/><path d="m1719.9 1948.11c-9.69 0-642.6-240.02-709.28-265.04-5.98-2.24-10.5-7.23-12.17-13.4l-154.46-576.47c-1.65-6.17-.24-12.76 3.83-17.7l476.37-579.57c10.2-12.4 30.26-8.07 34.42 7.45l381.37 1424.92c0 13.24-9.15 18.08-20.07 19.8z"/><path d="m898.24 2177.96c-45.69 0-93.63-21.65-105.63-66.43l-104.11-388.56c-22.11-82.52 251.4-46.7 253.68-38.21l96.67 360.82c18.66 69.51-61.08 132.37-140.61 132.37z"/><path d="m1583.71 1439.84c-22.88 0-114.54-370.69-127.16-417.97-2.83-10.56 3.43-21.42 13.99-24.25 196.17-52.59 358.63 159.19 257.09 335.04-30.53 52.86-79.81 90.68-138.78 106.49-1.71.48-3.45.7-5.14.7z"/><path d="m1869.93 1163.54c-42.02 0-50-60.48-9.39-71.37l288.89-77.41c46.24-12.39 64.93 57.87 18.76 70.13l-298.26 78.64zm286.76 336.05-296.11-78.65c-46.21-12.27-27.44-82.5 18.76-70.12l288.89 77.41c39.39 10.56 34.92 71.36-11.54 71.36zm-416.06-560.06c-32.21 0-48.47-39.17-25.67-61.96l211.48-211.47c33.67-33.68 85 17.65 51.33 51.32l-211.48 211.47c-6.81 6.82-16.02 10.64-25.66 10.64z"/><path d="m998.76 1838.47c-42.02 0-108.17-26.98-80.05-70.57 26.08-40.44 55.77 6.39 94.17-3.87 28.5-7.62 45.83-36.37 39.24-65.12-10.65-46.5 60.07-62.85 70.77-16.21 18.29 79.76-42.34 155.77-124.13 155.77z"/></g></symbol><symbol id="microphone" viewBox="0 0 2666.66 2666.66"><title>microphone</title><circle cx="1333.33" cy="1333.33" fill="#ff2e93" r="1333.33"/><g fill="#fefefe"><path d="m1488.18 1165.26c-17.21 0-26.32-20.73-14.41-33.39l92.39-98.01c17.37-18.41 47.78 7.08 27.71 28.35 57.51 31.2 234.43 201.72 217.91 217.28l-98.01 92.39c-3.81 3.6-8.69 5.39-13.57 5.39-17.72 0-225.14-199.66-212.03-212.01z"/><path d="m1177.17 1870.54c-5.07 0-10.13-1.96-14-5.81l-182.22-182.22c-7.59-7.59-7.76-19.84-.37-27.64l334.91-353.06c17.95-18.95 46.69 8.32 28.74 27.26l172.37 172.37c18.89-17.93 46.19 10.78 27.26 28.74l-353.05 334.92c-3.85 3.63-8.74 5.44-13.64 5.44zm73.26-195.85c-15.03 0-54.58-46.39-73.64-65.45-7.74-7.75-7.74-20.29 0-28.02l117.83-117.84c7.44-7.41 20.59-7.41 28.02 0 32.9 32.85 80.87 66.44 59.65 87.69l-117.83 117.82c-3.9 3.87-8.96 5.8-14.02 5.8zm30.26-78.07c-10.44-9.8-21.68-21.78-31.3-32l-30.61 30.61 31.64 31.64 30.26-30.26zm-2.99-60.3 31.65 31.64 30.91-30.91-31.65-31.65z"/><path d="m1869.35 1293.48c-258.61 0-399.23-288.02-266.7-489.47l439.14 439.15c-48.1 31.45-106.45 50.33-172.44 50.33zm214.3-449.08c0-26.07-39.61-26.07-39.61 0s39.61 26.07 39.61 0zm-62.6-62.6c0-26.07-39.61-26.07-39.61 0s39.61 26.07 39.61 0zm56.37 131.43c0-26.07-39.61-26.07-39.61 0s39.61 26.07 39.61 0zm-62.6-62.6c0-26.07-39.61-26.07-39.61 0s39.61 26.07 39.61 0zm-62.6-62.6c0-26.06-39.61-26.07-39.61 0s39.61 26.07 39.61 0zm113.96 199.03c0-26.07-39.61-26.07-39.61 0s39.61 26.07 39.61 0zm-187.81-187.79c0-26.07-39.61-26.07-39.61 0s39.61 26.07 39.61 0zm125.21 125.2c0-26.07-39.61-26.07-39.61 0s39.61 26.07 39.61 0zm-62.6-62.6c0-26.07-39.61-26.07-39.61 0s39.61 26.07 39.61 0zm-314.33-89.86 38.44-38.34 446.67 446.69c-11.5 13.92-24.2 26.9-38.03 38.74l-447.09-447.09zm70.61-62.19c122.89-79.57 288.61-65.51 396.35 42.22 115.54 115.53 116.23 278.89 41.75 395.89l-438.1-438.12z"/><path d="m1587.72 1593.13c-5.06 0-10.13-1.94-14.01-5.81l-315.38-315.41c-7.74-7.73-7.74-20.27 0-28l164.15-164.15c7.74-7.75 20.29-7.75 28.02 0l315.41 315.39c7.74 7.75 7.74 20.28 0 28.02l-164.17 164.17c-3.87 3.85-8.94 5.79-14.02 5.79z"/><path d="m1063.48 1900.91c-5.26 0-10.28-2.09-14-5.81l-98.93-98.91c-7.74-7.75-7.74-20.28 0-28.03l72.03-72.03c18.46-18.46 46.43 9.61 28 28.02l70.92 70.91c18.44-18.46 46.43 9.6 28 28.01l-72.03 72.04c-3.7 3.7-8.74 5.81-13.99 5.81z"/><path d="m701.01 2067.34c-72.74 0-114.57-50.5-133.23-116.63-76.13-269.8 326.3-667.56 472.72-946.9 44.64-85.17 95.48-207.56 2.74-278.1-103.14-78.45-219.85-62.46-326.18-1.41-87.02 49.97-140.59 126.63-165.39 223.17-11.91 46.31-82.22 28.22-70.32-18.08 29.85-116.08 95.31-208.19 199.56-268.06 134.41-77.2 278.96-90.29 406.3 6.58 126.72 96.4 84.07 241.96 20 365.22-111.72 214.93-308.73 425.38-418.38 645-36.38 72.87-74.38 170.66-51.17 252.87 7.23 25.61 20.11 55.22 48.56 62.11 83.04 20.11 246.62-127.77 301.26-186.26 32.5-34.8 85.81 14.45 53.07 49.56-73.77 79.11-226.62 210.93-339.54 210.93z"/></g></symbol><symbol id="microphone-1" viewBox="0 0 2666.66 2666.66"><title>microphone-1</title><circle cx="1333.33" cy="1333.33" fill="#076e6d" r="1333.33"/><g fill="#fefefe"><path d="m974.62 1582.44c-16.06 0-31.13-6.2-42.42-17.49l-127.76-127.76c-23.36-23.37-23.53-60.8-.36-85.21l76.65-80.81c2.55 5.59 6.12 10.82 10.71 15.42l191.33 191.33c4.52 4.52 9.77 8.14 15.48 10.74l-80.83 76.67c-11.69 11.04-26.88 17.12-42.8 17.12zm255.57-679.67 104.72-110.41c7.74-8.15 20.63-8.12 28.37-.37l214.13 214.13c7.88 7.88 7.68 20.72-.37 28.37l-110.41 104.73c-2.57-6.57-6.51-12.74-11.82-18.06l-206.62-206.62c-5.29-5.29-11.44-9.22-18-11.78z"/><path d="m1120.11 1460.38c-5.07 0-10.14-1.96-14-5.81l-191.33-191.33c-7.59-7.59-7.76-19.84-.37-27.63l282.06-297.36c7.77-8.19 20.7-8.06 28.37-.37l206.62 206.61c7.88 7.89 7.67 20.72-.37 28.37l-297.36 282.06c-3.82 3.61-8.73 5.43-13.63 5.43zm12.69-151.03c-61.08 0-98.54-76.38-52.19-122.74l75.23-75.23c66.04-66.03 168.15 36.08 102.11 102.1l-75.23 75.24c-13.29 13.32-31.02 20.64-49.93 20.64zm72.99-178.99c-18.56 0-32.16 19.25-49.21 36.3 17.62 9.29 35.12 25.07 45.81 46.42l27.59-27.59c21.11-21.11 2.3-55.13-24.19-55.13zm-80.52 67.61-16.64 16.64c-29.36 29.37 17.17 75.06 46.13 46.12l16.66-16.66c-6.39-25.22-20.93-39.42-46.15-46.1z"/><path d="m1604.3 1041.72c-20.76 0-71.95 1.36-61.4-29.7l-186.71-186.71c-10.75 4.46-25.2.08-27.79-14.46-18.25-102.32 18.03-190.68 80.62-250.29l396.38 396.38c-49.06 51.23-118.3 84.78-201.1 84.78zm207.17-306.38c0-26.08-39.6-26.07-39.6 0 0 26.06 39.6 26.07 39.6 0zm-161.26-161.27c0-26.07-39.61-26.08-39.61 0 0 26.07 39.61 26.07 39.61 0zm53.76 53.74c0-26.06-39.61-26.07-39.61 0 0 26.08 39.61 26.07 39.61 0zm53.76 53.77c0-26.07-39.6-26.07-39.6 0s39.6 26.06 39.6 0zm-13.18-94.35c0-26.07-39.6-26.06-39.6 0s39.6 26.07 39.6 0zm53.76 53.76c0-26.07-39.6-26.06-39.6 0 0 26.07 39.6 26.08 39.6 0zm-215.57-53.22c0-26.06-39.6-26.07-39.6 0s39.6 26.06 39.6 0zm53.76 53.75c0-26.07-39.6-26.06-39.6 0 0 26.07 39.6 26.07 39.6 0zm53.76 53.76c0-26.07-39.6-26.06-39.6 0 0 26.07 39.6 26.07 39.6 0zm53.75 53.77c0-26.07-39.61-26.07-39.61 0s39.61 26.06 39.61 0zm53.77 53.76c0-26.06-39.6-26.07-39.6 0s39.6 26.06 39.6 0zm-358.15-267.67c103.37-74.44 254.72-81.2 363.43 27.52 106.79 106.8 102.69 259.57 27.77 363.69l-391.2-391.2z"/><path d="m867.68 1588.06c-15.3 0-60.78-52.57-80.58-72.38-7.74-7.74-7.74-20.29 0-28.02 74.12-74.04 48.92-74.89 142.48 18.67 7.74 7.74 7.74 20.29 0 28.02-17.65 17.64-47.42 53.71-61.91 53.71z"/><path d="m1287.83 2186.67c-25.73 0-43.39-26.36-33.56-50.15 21.89-53.55 22.51-131.96-6.24-184.83-41.57-76.48-131.15-109.88-212.34-123.51-158.38-26.6-284.24-122.26-236.41-302.53 12.26-46.18 82.43-27.53 70.17 18.66-37.04 139.56 62.34 190.72 178.48 212.3 177.34 32.95 314.72 134.67 293.15 325.83-2.94 26.08-9.58 57.41-19.74 81.89-5.63 13.56-18.89 22.36-33.52 22.36z"/></g></symbol><symbol id="microphone-2" viewBox="0 0 2666.66 2666.66"><title>microphone-2</title><circle cx="1333.33" cy="1333.33" fill="#05aac0" r="1333.33"/><g fill="#fefefe"><path d="m1342.99 2016.97h-314.28c-10.54 0-19.13-8.04-19.96-18.57l-11.22-159.15h376.66l-11.25 159.28c-.83 10.4-9.56 18.44-19.96 18.44zm-157.21-318.7c-50.46 0-91.49-41.03-91.49-91.5v-179.11c0-50.46 41.04-91.5 91.49-91.5 50.46 0 91.49 41.04 91.49 91.5v179.11c0 50.32-41.03 91.5-91.49 91.5zm51.57-161.09h-103.14v69.59c0 67.87 103.14 67.87 103.14 0zm-103.14-39.93h103.14v-69.59c0-67.87-103.14-67.87-103.14 0zm-139.5 302.07-39.8-564.36h461.95l-39.85 564.36zm-42.61-604.28-13.78-195.32c-.83-11.46 8.35-21.32 19.83-21.35l455.39-2.5c11.5-.48 20.78 10.09 20.1 21.48l-13.96 197.69z"/><path d=""/><path d="m958.29 1018.29c-5.82 0-11.23-2.49-14.97-6.79-75.53-86.56-93.54-193.44-69.06-288.62h621.1c24.04 93.95 6.64 199.42-66.7 285.85-3.74 4.44-9.29 6.93-15.11 6.93zm-70.99-335.33c7.03-17.65 15.58-34.68 25.53-50.88h544.09c9.93 16.19 18.46 33.23 25.46 50.88zm54.39-90.8c126.42-149.78 360.02-149.81 486.39 0z"/><path d="m1598.07 1905.81c92.8 10.07 165.52 99.64 201.18 181.49 19.13 43.9-47.78 73.19-67.02 29.15-24.75-56.65-67.78-118.5-130.66-135.5-6.29-1.7-12.22-2.1-18.11-3.54-41.22-10.09-128.22 74.71-156.37 100.63-42.74 39.34-112.52 108.61-174.07 108.61-88.4 0-107.82-118.94-115.39-185.43-5.41-47.54 67.06-55.94 72.47-8.16 19.31 170.52 51.64 137.9 167.74 31.28 53.51-49.13 140.3-135.67 220.23-118.53z"/></g></symbol><symbol id="rap" viewBox="0 0 2666.66 2666.66"><title>rap</title><circle cx="1333.33" cy="1333.33" fill="#003c69" r="1333.33"/><g fill="#fefefe"><path d="m1152.31 1410.17c23.17-56.76 18.68-113.8-8.13-169.65-15.63-32.57 24.74-48.79 40.48-16 32.94 68.59 47.13 130.59 21.29 199.37-15.69 11.8-29.7 25.74-41.6 41.36l-7.48-.13-25.95-33.26 1.46 2.02c10.04-9.56 10.04-9.56 19.94-23.72zm362.19-.01c15.89 14.52 24.87 26.96 32.87 41.98l-27.61.45-9.6 12.5-7.89.15c-11.83-15.53-25.76-29.39-41.34-41.15-25.15-69.65-15.35-143.2 17.28-211.06 15.64-32.52 65.24-8.72 49.62 23.83-26.43 55.06-35.77 115.84-13.33 173.3z"/><path d="m1077.24 1091.66c-85.07-35.04-93.11-155.98-3.11-199.64v-111.96c0-15.19 12.32-27.51 27.51-27.51h463.79c15.18 0 27.51 12.33 27.51 27.51v110.09c96.24 39.24 92.1 169.71-1.36 203.31-89.48 343.3-425.97 341.54-514.35-1.8zm460.67-284.1h-408.74v103.16c0 12.13-7.94 22.81-19.55 26.32-64.7 19.55-53.61 95.23-2.51 106.56 16.54 3.67 19.42 14.9 22.02 28.86 42.63 228.79 237.4 295.09 351.54 136.42 65.38-90.88 46.63-158.74 82.88-164.74 56.37-9.32 64.83-91.6-4.14-107.06-12.56-2.81-21.5-13.96-21.5-26.84v-102.69z"/><path d="m1337.17 1222.35c-38.8 0-122.37-31.26-92.48-70.15 9.26-12.04 26.57-14.31 38.6-5.03 34.31 26.46 72.46 27.18 106.65.2 28.27-22.31 62.37 20.88 34.08 43.2-25.04 19.76-54.73 31.78-86.86 31.78zm-73.81-300.37c-20.02 0-32.26-27.99-60.28-5.91-28.28 22.29-62.35-20.89-34.08-43.2 58.29-46.03 146.15-.73 116.18 38.35-5.22 6.8-13.26 10.76-21.82 10.76zm224.09 0c-20.44 0-31.83-28.32-60.28-5.91-28.28 22.28-62.35-20.89-34.08-43.21 59.13-46.68 145.92-.29 116.19 38.36-5.23 6.8-13.26 10.75-21.83 10.75zm-66.7 27.85c0-36.2 55.02-36.2 55.02 0 0 22.82 7.83 69.04-27.5 69.04-35.34 0-27.52-46.21-27.52-69.04zm-224 0c0-36.2 55.02-36.19 55.02 0 0 22.83 7.82 69.04-27.51 69.04-35.34 0-27.52-46.21-27.52-69.04z"/><path d="m1618.03 813.86h-568.74c-8.62 0-15.15-7.91-13.5-16.38l34.06-175.52c16.74-86.24 73.38-141.96 144.32-141.96h230.03c75.43 0 134.06 57.69 153.02 150.54l34.57 169.56c-.01 7.61-6.17 13.76-13.76 13.76zm-98.13-80.81h-161.31c-7.6 0-13.76-6.17-13.76-13.75v-72.36c0-7.6 6.16-13.75 13.76-13.75h144.72c6.42 0 11.98 4.43 13.41 10.68l16.6 72.37c1.95 8.58-4.62 16.81-13.41 16.81zm-147.57-27.51h130.29l-10.28-44.85h-120.01z"/><path d="m1049.3 813.86h-148.26c-55.43 0-100.54-45.1-100.54-100.53 0-55.45 45.1-100.55 100.54-100.55h181.95c97.28 0-31.08 201.08-33.69 201.08z"/><path d="m1478.37 1438.78c11.33-14.42 13.96-20.17 26.93-14.98l19.21.52c21.9 1.19 43.2 4.42 63.79 9.5v449.16h-82.39v-72.92c0-24.49-16.52-45.15-39-51.46 100.11-81.25 105.59-231.62 11.46-319.81zm-317.67 444.2h-86.36v-447.93c32.3-8.54 54.45-10.45 87.07-11.24 8.64-11.46 21.37 7.49 27.08 14.76-94.34 88.14-88.97 238.69 11.24 320.02-22.5 6.3-39.02 26.97-39.02 51.47v72.92zm-119.76 0h-244.48c-14.79 0-13.75-14.67-13.75-22.22 0-193.46 106.02-357.52 258.23-414.99zm580.76-439.04c155.26 55.79 262.27 221.93 262.27 425.29 0 7.6-6.16 13.75-13.75 13.75h-248.52z"/><path d="m1402.17 2186.67h-137.7c-10.84 0-19.72-8.62-20.03-19.46l-6.85-232.53c-.87-29.83 191.58-4.36 191.45 0l-6.85 232.53c-.31 10.84-9.18 19.46-20.02 19.46z"/><path d="m1333.31 1772.6c-79.68 0-147.35-52.37-170.44-124.48h340.89c-23.09 72.12-90.76 124.48-170.45 124.48zm-178.27-163.81v-30.21h356.56v30.21zm7.83-69.54c52.88-165.19 288.01-165.18 340.89 0z"/><path d="m1452.48 1954.14h-238.33c-11.06 0-20.04-8.99-20.04-20.04v-124.04c0-11.06 8.98-20.04 20.04-20.04h238.32c11.06 0 20.04 8.99 20.04 20.04v124.04c.02 11.06-8.98 20.04-20.03 20.04z"/></g></symbol><symbol id="karaoke" viewBox="0 0 2666.66 2666.66"><title>karaoke</title><circle cx="1333.33" cy="1333.33" fill="#e9225b" r="1333.33"/><g fill="#fefefe"><path d="m1322.61 1456.94c-17.06 0-26.24-20.61-14.33-33.25l74.43-78.94c15.46-16.38 51.27 3.09 23.77 32.26 18.97-17.69 198.26 153.11 179.37 170.93l-78.94 74.42c-3.8 3.57-8.67 5.37-13.52 5.37-14.87 0-132.32-125.67-161.64-173.02-2.85 1.48-5.99 2.24-9.13 2.24z"/><path d="m1072.13 2024.96c-5.05 0-10.09-1.94-13.93-5.78l-146.77-146.77c-7.56-7.56-7.72-19.76-.37-27.52l269.75-284.34c9.54-10.06 198.65 180.31 189.22 189.26l-284.34 269.74c-3.81 3.6-8.69 5.41-13.56 5.41zm59-157.72c-14.43 0-44.4-36.26-61.97-53.83-7.7-7.7-7.7-20.19 0-27.89l94.91-94.91c7.39-7.37 20.48-7.37 27.87 0 27.45 27.41 68.3 55.66 48.05 75.94l-94.91 94.91c-3.71 3.67-8.74 5.77-13.95 5.77zm18.94-66.52c-6.67-6.45-13.52-13.73-19.85-20.48l-19.25 19.25 20.17 20.18 18.94-18.94zm8.35-48.69 20.17 20.17 19.55-19.56-20.16-20.18-19.56 19.56z"/><path d="m1629.6 1560.2c-209.83 0-325.32-233.43-219.24-398.04l357.35 358.25c-39.97 25.2-87.32 39.78-138.11 39.78zm192.79-381.85c0-25.95-39.43-25.95-39.43 0s39.43 25.95 39.43 0zm-50.41-50.41c0-25.95-39.42-25.95-39.42 0s39.42 25.95 39.42 0zm45.4 105.83c0-25.95-39.42-25.95-39.42 0s39.42 25.96 39.42 0zm-50.42-50.41c0-25.96-39.42-25.95-39.42 0s39.42 25.95 39.42 0zm-50.41-50.42c0-25.95-39.43-25.95-39.43 0s39.43 25.95 39.43 0zm91.76 160.31c0-25.95-39.42-25.95-39.42 0s39.42 25.95 39.42 0zm-151.24-151.24c0-25.95-39.42-25.95-39.42 0s39.42 25.95 39.42 0zm100.83 100.83c0-25.95-39.43-25.95-39.43 0s39.43 25.95 39.43 0zm-50.43-50.42c0-25.93-39.39-25.93-39.39 0s39.39 25.93 39.39 0zm-273.07-61.98 25.65-25.54 365.24 366.15c-7.93 9.11-16.47 17.66-25.58 25.58l-365.31-366.2zm57.51-49.42c164.46-104.79 396.89 9.96 396.89 219.97 0 50.76-14.57 98.09-39.74 138.05z"/><path d="m1402.8 1801.55c-5.23 0-10.24-2.08-13.95-5.78l-254.01-254.02c-7.7-7.71-7.7-20.19 0-27.89l132.22-132.22c7.39-7.38 20.48-7.38 27.87 0l254.03 254.02c7.7 7.7 7.7 20.19 0 27.89l-132.2 132.22c-3.71 3.7-8.72 5.78-13.95 5.78z"/><path d="m980.57 2049.43c-5.05 0-10.09-1.93-13.93-5.78l-79.67-79.67c-7.71-7.71-7.71-20.19 0-27.89l58.01-58.01c7.04-7.04 94.15 66.26 107.54 79.67 7.69 7.7 7.71 20.19 0 27.89-18.89 18.88-57.02 63.79-71.95 63.79z"/><path d="m689.05 2186.67c-62.04 0-98.35-42.35-114.34-99.01-62.5-221.46 262.87-542.17 381.04-767.28 34.05-64.86 75.65-161.48 4.35-215.7-81.61-62.07-169.66-49.7-255.09-.64-68.35 39.25-110.41 99.44-129.96 175.48-11.85 46.08-81.85 28.09-69.99-18 24.52-95.32 78.35-171 163.97-220.15 110.79-63.61 229.96-73.99 334.84 5.79 106.57 81.07 68.2 206.04 14.43 308.85-90.34 172.71-242.11 336.26-330.26 508.08-29.8 58.09-62.43 137.81-43.77 203.92 5.01 17.76 14.09 40.36 34.09 45.22 63.56 15.44 193.91-103.07 235.98-148.03 32.39-34.62 85.41 14.48 52.79 49.37-61.71 66-183.44 172.1-278.08 172.1z"/><path d="m1817.39 1760.05v232.06c0 47.56-72.31 47.59-72.31 0v-331.78c0-16.29 10.93-30.59 26.65-34.88l344.31-93.89c22.85-6.23 45.65 11.19 45.65 34.87v363.09c0 47.59-72.28 47.58-72.28 0v-243.08z"/><path d="m2064.98 1879.59c-77.14 0-77.14 99.84 0 99.84 77.17 0 77.17-99.84 0-99.84z"/><path d="m2064.98 2018.89c-54 0-97.96-40.09-97.96-89.36 0-49.26 43.95-89.35 97.96-89.35 54.02 0 97.97 40.09 97.97 89.35 0 49.27-43.95 89.36-97.97 89.36z"/><path d="m1720.66 1942.19c-77.15 0-77.13 99.85 0 99.85s77.21-99.85 0-99.85z"/><path d="m1720.66 2081.48c-54 0-97.96-40.1-97.96-89.37 0-49.26 43.95-89.34 97.96-89.34 54.02 0 97.97 40.09 97.97 89.34.02 49.27-43.94 89.37-97.97 89.37z"/><path d="m1254.2 709.77v232.06c0 47.56-72.31 47.59-72.31 0v-331.79c0-16.29 10.93-30.59 26.65-34.88l344.31-93.89c22.85-6.23 45.65 11.19 45.65 34.87v363.09c0 47.59-72.28 47.58-72.28 0v-243.09l-272.02 73.61z"/><path d="m1501.79 829.31c-77.14 0-77.14 99.84 0 99.84 77.17 0 77.17-99.84 0-99.84z"/><path d="m1501.79 968.6c-54 0-97.95-40.09-97.95-89.36 0-49.26 43.95-89.36 97.95-89.36 54.02 0 97.97 40.09 97.97 89.36 0 49.26-43.95 89.36-97.97 89.36z"/><path d="m1157.46 891.91c-77.15 0-77.13 99.85 0 99.85s77.21-99.85 0-99.85z"/><path d="m1157.46 1031.2c-54 0-97.96-40.1-97.96-89.37s43.95-89.35 97.96-89.35c54.02 0 97.97 40.09 97.97 89.35.02 49.27-43.94 89.37-97.97 89.37z"/></g></symbol><symbol id="microphone-3" viewBox="0 0 2666.66 2666.66"><title>microphone-3</title><circle cx="1333.33" cy="1333.33" fill="#05aac0" r="1333.33"/><g fill="#fefefe"><path d="m1608.28 893.13 344.03 344.03v.07c24.72 24.74 24.5 64.86 0 89.37l-165.87 165.87h-.07c-24.74 24.73-64.87 24.5-89.37 0l-344.03-344.03c-24.63-24.63-24.62-64.81 0-89.44l165.87-165.87h.07c24.67-24.66 64.76-24.59 89.36 0zm221.36 391.03c18.44-18.44-9.57-46.45-28.01-28.01l-85.65 85.65c-18.44 18.44 9.57 46.45 28.01 28.01zm-80.12-80.12c18.44-18.44-9.57-46.45-28.01-28.01l-85.65 85.65c-18.44 18.44 9.57 46.45 28.01 28.01zm-80.12-80.12c18.44-18.44-9.57-46.45-28.01-28.01l-85.65 85.65c-18.44 18.44 9.57 46.45 28.01 28.01zm-80.12-80.12c18.44-18.44-9.57-46.45-28.01-28.01l-85.65 85.65c-18.44 18.44 9.57 46.45 28.01 28.01z" fill-rule="nonzero"/><path d="m1443.03 1182.47 223.44 223.44c8.1 8.04 7.62 21.35-.92 28.87l-.01-.01-494.74 435.56c-16.3 14.36-41.02 14.8-56.67-.85l-134.68-134.68c-15.7-15.7-15.21-40.35-.85-56.67l435.03-494.13c7.9-9.33 21.22-9.71 29.39-1.54z" fill-rule="nonzero"/><path d="m1024.34 1723.67 100.93 100.93c7.73 7.73 7.73 20.28 0 28.01l-65.11 65.1c-7.73 7.73-20.28 7.73-28.01 0l-100.93-100.93c-7.73-7.73-7.73-20.28 0-28.01l65.1-65.1c7.73-7.73 20.28-7.73 28.01 0z" fill-rule="nonzero"/><path d="m559.3 1618.89 309.7 309.7 101.02-101.02c33.68-33.69 85.04 17.67 51.35 51.35l-126.7 126.7c-14.17 14.17-37.18 14.17-51.35 0l-361.05-361.05c-14.17-14.17-14.17-37.18 0-51.35l844.43-844.43c33.68-33.69 85.04 17.67 51.35 51.35l-818.76 818.75z"/><path d="m2096.28 749.15c109.13 109.13 104.94 276.22 13.64 381.92l-395.26-395.27c103.51-88.27 268.15-100.12 381.62 13.35zm-14.35 409.95c-22.42 19.45-48.53 35.74-78.11 47.76-22.52 9.16-105.46 32.36-123.02 14.81l-257.04-257.05c-3.53-3.52-5.74-8.37-5.8-13.75l.08-.02c-.95-74.91 25.74-139.02 68.37-187.29z" fill-rule="nonzero"/></g></symbol><symbol id="microphone-4" viewBox="0 0 2666.66 2666.66"><title>microphone-4</title><circle cx="1333.33" cy="1333.33" fill="#076e6d" r="1333.33"/><g fill="#fefefe"><path d="m1681.6 1257.64h-467.35c-33.92 0-61.53-27.61-61.53-61.54v-225.31c0-33.93 27.61-61.54 61.53-61.54h467.35c33.93 0 61.54 27.6 61.54 61.54v225.31c-.02 33.94-27.61 61.54-61.54 61.54zm-41.48-88.78c-88.24 0-77.72 11.88-77.72-80.81 0-95.52-11-82.89 79.95-82.89 26.08 0 26.07 39.62 0 39.62h-40.34v22.49c11.57.08 24.48.97 37 .97 26.07 0 26.08 39.61 0 39.61-12.52 0-25.43.89-37 .97v20.41c25.18 0 57.91-5.91 57.91 19.8 0 10.94-8.87 19.81-19.8 19.81zm-160.93 2.54c-8.15 0-15.48-5.01-18.46-12.6l-50.43-129.15c-9.48-24.3 27.42-38.67 36.9-14.41l31.96 81.89 31.96-81.89c9.48-24.26 46.38-9.88 36.9 14.41l-50.43 129.15c-2.93 7.59-10.26 12.6-18.42 12.6zm-111.39.72c-10.93 0-19.81-8.87-19.81-19.8v-132.78c0-26.07 39.61-26.07 39.61 0v132.78c.01 10.94-8.87 19.8-19.81 19.8zm-55.11 0c-38.06 0-79.02 7.86-79.02-19.8v-130.6c0-26.07 39.61-26.07 39.61 0v110.79c26 0 59.22-6.04 59.22 19.81 0 10.93-8.86 19.8-19.81 19.8z"/><path d=""/><path d="m1541.79 1909.6h-182.96c-21 0-38.5-16.99-39.85-38.67l-40.19-631.86c-.72-11.35 8.39-21.07 19.76-21.07h303.52c11.37 0 20.48 9.73 19.78 21.07l-40.19 631.87c-1.4 22.04-18.55 38.66-39.87 38.66z"/><path d="m1518.85 1998.06h-137.11c-10.93 0-19.81-8.89-19.81-19.81v-88.45c0-10.94 8.89-19.81 19.81-19.81h137.11c10.93 0 19.8 8.88 19.8 19.81v88.45c0 10.92-8.87 19.81-19.8 19.81z"/><path d="m996.15 2114.04h417.83v-135.79c0-47.82 72.63-47.81 72.63 0v172.1c0 20.04-16.27 36.31-36.31 36.31h-490.46c-20.04 0-36.32-16.28-36.32-36.31v-1147.1c0-47.82 72.63-47.82 72.63 0z"/><path d="m1622.51 948.86h-349.17c-5.16 0-10.12-2.01-13.82-5.63-51.54-50.32-77-111.88-80.97-173.48h538.78c-3.95 61.68-29.43 123.27-80.99 173.48-3.7 3.6-8.65 5.63-13.82 5.63zm-443.57-218.73c10.82-130.45 115.22-250.14 269-250.14 153.95 0 258.14 119.78 268.98 250.14z"/></g></symbol><symbol id="microphone-5" viewBox="0 0 2666.66 2666.66"><title>microphone-5</title><circle cx="1333.33" cy="1333.33" fill="#e9225b" r="1333.33"/><g fill="#fefefe"><path d="m1176.02 1884.46c-13.93 0-26.43-5.15-36.17-14.91l-203.54-203.54c-19.16-19.17-20-48.83-2.09-73.8l68.66-95.83 306.62 306.62-95.85 68.66c-11.53 8.26-24.89 12.81-37.63 12.81zm128.63-270.45c-5.07 0-10.13-1.94-14-5.81l-92.99-92.97c-7.74-7.76-7.74-20.28 0-28.04l196.02-196.02c7.74-7.75 20.29-7.75 28.02 0l92.99 92.97c7.74 7.75 7.74 20.29 0 28.04l-196.02 196c-3.89 3.88-8.96 5.83-14.02 5.83zm-64.98-112.78 64.97 64.96 70.01-70-64.97-64.98-70 70.01zm163-33.06 69.98-69.98-64.98-64.98-69.98 69.99zm-376.4-4.44 287.09-400.75 429.52 429.56-400.74 287.07-315.88-315.88zm310.48-433.4 85-118.65c7.16-9.97 21.48-11.09 30.13-2.46l444.81 444.8c8.62 8.64 7.44 23.01-2.48 30.12l-118.65 85-438.8-438.8z"/><path d="m1882.37 1388.04c-6.52 0-12.67-3.22-16.35-8.65l-440.22-440.2c-6.18-4.61-9.27-12.45-7.44-20.21 11.92-50.62 32.65-95.7 59.91-134.57l543.03 543.04c-38.76 27.16-83.75 47.93-134.39 60.06-1.51.37-3.04.54-4.53.54zm-379.5-635.05c21.22-24.35 45.25-45.63 71.32-63.66l542.22 542.23c-18.01 26.04-39.28 50.07-63.67 71.3zm105.94-85.07c142.89-78.32 331.84-66.89 463.94 65.2 131.32 131.31 143.57 320.51 65.07 463.81z"/><path d="m1010.63 1955.8c-5.07 0-10.14-1.94-14-5.81l-140.74-140.72c-7.74-7.75-7.74-20.28 0-28.04l111.83-111.83c7.75-7.75 20.28-7.75 28.01 0l140.74 140.72c7.74 7.75 7.74 20.28 0 28.03l-111.83 111.84c-3.89 3.87-8.95 5.81-14.01 5.81z"/><path d="m567.68 1733.14 226.85 226.85 120.08-120.08c33.7-33.7 85.02 17.69 51.35 51.37l-145.76 145.75c-14.2 14.2-37.17 14.22-51.37.02l-278.19-278.21c-14.19-14.19-14.19-37.19 0-51.37l588.04-588.05c33.69-33.69 85.04 17.67 51.35 51.35l-562.36 562.37z"/></g></symbol><symbol id="television" viewBox="0 0 2666.66 2666.66"><title>television</title><circle cx="1333.33" cy="1333.33" fill="#f06730" r="1333.33"/><g fill="#fff"><path d="m2042.72 2031.13h-1418.8c-79.04 0-143.36-64.33-143.36-143.37v-876.83c0-79.05 64.3-143.37 143.36-143.37h1418.8c79.04 0 143.37 64.3 143.37 143.37v876.83c0 79.05-64.32 143.37-143.37 143.37zm-87.01-648.07c-68.11 0-123.53-55.42-123.53-123.53s55.42-123.53 123.53-123.53 123.53 55.42 123.53 123.53-55.42 123.53-123.53 123.53zm0-103.54c-11.04 0-19.99-8.96-19.99-19.99v-81.52c-89.5 18.95-82.87 165.07 19.99 165.07s109.48-146.12 19.98-165.07v81.52c0 11.06-8.95 19.99-19.98 19.99zm0 483.18c-68.11 0-123.53-55.42-123.53-123.53s55.42-123.53 123.53-123.53 123.53 55.42 123.53 123.53-55.42 123.53-123.53 123.53zm0-103.54c-17.64 0-26.78-21.51-14.15-34.13l58.13-58.14c-11.91-7.06-26.56-11.27-43.98-11.27-109.97 0-109.98 167.11 0 167.11 74.91 0 98.77-77.51 71.64-126.95l-57.51 57.52c-3.9 3.9-9.03 5.86-14.13 5.86zm-316.15 239.79h-874.65c-69.33 0-125.74-56.41-125.74-125.75v-647.71c0-69.33 56.41-125.74 125.74-125.74h874.64c69.33 0 125.75 56.41 125.75 125.74v647.71c0 69.35-56.41 125.75-125.73 125.75z"/><path d="m1541.53 907.54c-102.35 0-445.54-4.49-434.54-28.36 88.73-192.56 363.95-192.56 452.68.01 6.14 13.31-3.84 28.35-18.14 28.35z"/><path d="m1721.05 640.69c-104.61 0-104.63-158.95 0-158.95s104.61 158.95 0 158.95z"/><path d="m1480.85 844.69c-32.53 0-48.95-39.55-25.93-62.57l201.57-201.57c34.01-34.01 85.84 17.82 51.84 51.82l-201.58 201.58c-6.88 6.88-16.18 10.74-25.91 10.74zm-295.02-.01c-9.74 0-19.02-3.86-25.91-10.74l-201.58-201.59c-34-34 17.83-85.82 51.83-51.83l201.57 201.57c23.01 23 6.61 62.59-25.91 62.59z"/><path d="m945.63 640.66c-104.6 0-104.6-158.95 0-158.95 104.59 0 104.61 158.95 0 158.95z"/><path d="m910.33 2184.95h-215.91c-11.03 0-19.99-8.96-19.99-19.98v-153.83c0-26.31 39.97-26.3 39.97 0l248.26-8.31c10.97-23.96 47.31-7.26 36.34 16.64l-70.49 153.83c-3.25 7.1-10.36 11.66-18.17 11.66z"/><path d="m1972.22 2184.95h-215.91c-7.81 0-14.91-4.56-18.17-11.67l-70.5-153.83c-10.96-23.91 25.35-40.59 36.34-16.64l248.22 8.31c0-26.31 39.97-26.3 39.97 0v153.83c.04 11.05-8.92 20-19.96 20z"/></g></symbol><symbol id="spotlight" viewBox="0 0 2666.66 2666.66"><title>spotlight</title><circle cx="1333.33" cy="1333.33" fill="#5e162a" r="1333.33"/><g fill="#fefefe"><path d="m736.14 1768.18c-81.52-36.18-221.17-101.15-244.4-111.71-10.05-4.57-14.48-16.45-9.91-26.5l131.69-289.4c4.57-10.04 16.45-14.5 26.5-9.91l247.85 112.81-9.83 17.5-131.68 289.39-10.23 17.83zm61.89-329.53c0-25.46-36.69-25.46-36.69 0s36.69 25.46 36.69 0zm-26.44 200.19c-11.8 0-129.83-71.89-149.43-83.2-22.78-13.15-2.81-47.82 20-34.63l139.44 80.51c17.67 10.2 10.3 37.32-10.02 37.32z"/><path d="m900.77 1929.06c-6.13 0-12-2.83-15.8-7.76l-105.87-136.61c-4.56-5.86-5.47-13.76-2.39-20.54l131.68-289.39c3.07-6.75 9.64-11.26 17.06-11.68l172.54-9.93c14.91-1 25.53 14.69 19.36 28.25l-198.36 435.92c-3.23 7.09-10.39 11.73-18.2 11.73z"/><path d="m999.78 1796.6c-18.89 0-32.06-3.17-40.77-7.88 23.84-56.26 58.04-142.44 83.64-194.12l1.02.43c102.78 46.75 68.95 201.57-43.89 201.57z"/><path d="m1186.78 1796.12c-8.37 0-51.4-21.44-61.85-26.19-23.95-10.89-7.43-47.31 16.57-36.41 34.6 15.73 74.98 25.52 63.48 50.88-3.33 7.37-10.6 11.72-18.21 11.72z"/><path d="m1133.35 1861.06c-16.79 0-33.5-32.49-50.5-56.29-15.24-21.35 17.3-44.59 32.55-23.25 21.98 30.76 52.25 59.65 29.56 75.8-3.54 2.52-7.59 3.74-11.61 3.74z"/><path d="m1054.53 1890.56c-25.73 0-21.87-38.59-25.57-76.67-2.57-26.39 37.29-29.82 39.81-3.85 3.54 36.56 16.04 80.52-14.24 80.52z"/><path d="m1142.02 1718.8c-24.99 0-26.99-37.48-1.9-39.91 36.92-3.58 77.74-15.39 80.41 12.31 2.35 24.31-37.51 27.6-78.52 27.6z"/><path d="m1123.25 1668.56c-19.31 0-27.47-24.99-11.64-36.29 30.85-22.03 59.6-52.23 75.8-29.56 16.2 22.68-21.72 40.07-52.55 62.11-3.52 2.52-7.58 3.74-11.61 3.74z"/><path d="m779.69 1526.06c-40.98 0-74.33-33.35-74.33-74.33v-233.42c0-11.04 8.96-20 20-20h108.67c11.04 0 20 8.96 20 20v233.43c0 40.98-33.35 74.33-74.33 74.33zm18.35-87.41c0-25.46-36.69-25.46-36.69 0s36.69 25.46 36.69 0z"/><path d="m1926.4 1254.96h-1184.16c-49.04 0-49.17-73.33 0-73.33h1184.17c46.28 0 46.48 73.93-.02 73.33z"/><path d="m1379.59 1238.3h-97.25c-11.04 0-20-8.96-20-20v-329.62c0-11.04 8.96-20 20-20h97.25c11.04 0 20 8.96 20 20v329.62c0 11.06-8.96 20-20 20z"/><path d="m1601.56 908.68h-541.2c-29.68 0-53.82-24.14-53.82-53.82v-63.43c0-29.68 24.13-53.82 53.82-53.82l541.2.01c29.68 0 53.83 24.13 53.83 53.82v63.43c-.01 29.68-24.17 53.81-53.83 53.81z"/><path d="m1930.52 1768.18c81.52-36.18 221.17-101.15 244.4-111.71 10.05-4.57 14.48-16.45 9.91-26.5l-131.69-289.4c-4.57-10.04-16.45-14.5-26.5-9.91l-247.85 112.81 9.83 17.5 131.68 289.39 10.23 17.83zm-61.89-329.53c0-25.46 36.69-25.46 36.69 0s-36.69 25.46-36.69 0zm26.44 200.19c11.8 0 129.83-71.89 149.43-83.2 22.78-13.15 2.81-47.82-20-34.63l-139.44 80.51c-17.67 10.2-10.3 37.32 10.02 37.32z"/><path d="m1765.89 1929.06c6.13 0 12-2.83 15.8-7.76l105.87-136.61c4.56-5.86 5.47-13.76 2.39-20.54l-131.68-289.39c-3.07-6.75-9.64-11.26-17.06-11.68l-172.54-9.93c-14.91-1-25.53 14.69-19.36 28.25l198.36 435.92c3.23 7.09 10.39 11.73 18.2 11.73z"/><path d="m1666.88 1796.6c18.89 0 32.06-3.17 40.77-7.88-23.84-56.26-58.04-142.44-83.64-194.12l-1.02.43c-102.78 46.75-68.95 201.57 43.89 201.57z"/><path d="m1479.88 1796.12c8.37 0 51.4-21.44 61.85-26.19 23.95-10.89 7.43-47.31-16.57-36.41-34.6 15.73-74.98 25.52-63.48 50.88 3.33 7.37 10.6 11.72 18.21 11.72z"/><path d="m1533.31 1861.06c16.79 0 33.5-32.49 50.5-56.29 15.24-21.35-17.3-44.59-32.55-23.25-21.98 30.76-52.25 59.65-29.56 75.8 3.54 2.52 7.59 3.74 11.61 3.74z"/><path d="m1612.13 1890.56c25.73 0 21.87-38.59 25.57-76.67 2.57-26.39-37.29-29.82-39.81-3.85-3.54 36.56-16.04 80.52 14.24 80.52z"/><path d="m1524.63 1718.8c24.99 0 26.99-37.48 1.9-39.91-36.92-3.58-77.74-15.39-80.41 12.31-2.35 24.31 37.51 27.6 78.52 27.6z"/><path d="m1543.41 1668.56c19.31 0 27.47-24.99 11.64-36.29-30.85-22.03-59.6-52.23-75.8-29.56-16.2 22.68 21.72 40.07 52.55 62.11 3.52 2.52 7.58 3.74 11.61 3.74z"/><path d="m1886.97 1526.06c40.98 0 74.33-33.35 74.33-74.33v-233.42c0-11.04-8.96-20-20-20h-108.67c-11.04 0-20 8.96-20 20v233.43c0 40.98 33.35 74.33 74.33 74.33zm-18.35-87.41c0-25.46 36.69-25.46 36.69 0s-36.69 25.46-36.69 0z"/></g></symbol><symbol id="theater" viewBox="0 0 2666.66 2666.66"><title>theater</title><circle cx="1333.33" cy="1333.33" fill="#e9225b" r="1333.33"/><g fill="#fefefe"><path d="m2030.86 796.42h-1395.06c-11.04 0-20-8.96-20-20v-77.2c0-11.04 8.96-20 20-20h1395.04c11.04 0 20 8.96 20 20v77.2c.02 11.04-8.94 20-19.98 20z"/><path d="m635.81 839.6h-135.81c-11.04 0-20-8.96-20-20v-160.82c0-11.04 8.96-20 20-20h135.81c11.04 0 20 8.96 20 20v160.82c0 11.04-8.94 20-20 20z"/><path d="m2166.67 839.6h-135.8c-11.04 0-20-8.96-20-20v-160.82c0-11.04 8.97-20 20-20h135.8c11.04 0 20 8.96 20 20v160.82c0 11.04-8.96 20-20 20z"/><path d="m1947.22 1411.1c-26.39 0-206.07 2.97-216.26-2.18-130.79-66.67-212.06-198.69-212.06-344.58v-287.92c0-11.04 8.97-20 20-20h408.32c11.04 0 20 8.96 20 20v614.67c.01 11.04-8.96 20.02-20 20.02zm-68.89 0c-4.25 0-8.5-1.35-12.13-4.13-180.69-138.06-142.85-423.96-143.14-630.53-.04-26.37 39.97-26.43 40-.06.23 203.03-36.54 473.43 127.43 598.81 15.37 11.75 6.37 35.9-12.15 35.9z"/><path d="m926.75 1411.1h-138.08c4.17-.04 8.36-1.39 11.96-4.13 180.5-137.63 142.92-424.17 143.11-630.53.03-26.38-39.96-26.42-40-.06-.29 203.12 36.61 473.24-127.43 598.82-15.39 11.78-6.35 35.89 12.17 35.89h-68.9c-11.04 0-20-8.97-20-20v-614.68c0-11.04 8.96-20 20-20h408.3c11.04 0 20 8.96 20 20v287.9c0 145.89-81.25 277.93-212.06 344.58-2.8 1.43-5.91 2.2-9.06 2.2z"/><path d="m1947.22 2027.87h-185.7c-4.85-185.11-11.17-427.79 122.93-536.77 20.36-16.55-4.85-47.56-25.22-31.06-151.94 123.26-140.17 385.41-137.74 567.82h-182.58c-11.04 0-20-8.97-20-20v-210.69c0-141 77.33-270.96 201.82-339.15 10.5-5.75 198.94-2.47 226.48-2.47 11.04 0 20 8.97 20 20v532.3c.01 11.04-8.96 20.01-20 20.01z"/><path d="m1127.87 2027.87h-182.63c4.7-186.55 11.48-446.47-137.69-567.82-20.33-16.54-45.57 14.51-25.21 31.06 133.21 108.19 127.79 349.54 123.01 533.07-.03 1.13-.09 2.37-.15 3.7h-185.64c-11.04 0-20-8.97-20-20v-532.31c0-11.04 8.96-20 20-20 27.54 0 216.01-3.28 226.51 2.47 124.47 68.2 201.81 198.15 201.81 339.16v210.68c-.02 11.02-8.97 20-20.02 20z"/><path d="m1538.92 1882.25h-411.05c-48.28 0-48.28-73.33 0-73.33h411.05c48.28 0 48.28 73.33 0 73.33zm0-948.41h-411.05c-48.29 0-48.29-73.33 0-73.33h411.05c48.28 0 48.28 73.33 0 73.33zm0 125h-411.05c-48.29 0-48.29-73.33 0-73.33h411.05c48.28 0 48.28 73.33 0 73.33z"/><path d="m1947.36 1495.57h-295.64c-81.91 0-81.9-124.47 0-124.47h295.64c11.04 0 20 8.97 20 20v84.47c0 11.02-8.95 20-20 20z"/><path d="m1015.08 1495.57h-295.64c-11.04 0-20-8.97-20-20v-84.47c0-11.04 8.96-20 20-20h295.64c81.89 0 81.89 124.47 0 124.47z"/></g></symbol><symbol id="makeup" viewBox="0 0 2666.66 2666.66"><title>makeup</title><circle cx="1333.33" cy="1333.33" fill="#e9225b" r="1333.33"/><g fill="#fefefe"><path d="m1738.81 1778.62h-657.63c-44.56 0-75.38-33.81-75.38-82.63h404.2c26.33 0 26.34-40.02 0-40.02h-404.2c0-48.84 30.82-82.65 75.38-82.65l657.63-.01c41.56 0 75.39 33.84 75.39 75.39v54.52c-.01 41.56-33.83 75.4-75.39 75.4z"/><path d="m1410 1613.34c-186.85 0-338.87-152-338.87-338.87 0-186.86 152-338.87 338.87-338.87 186.86 0 338.88 152 338.88 338.87 0 186.86-152.03 338.87-338.88 338.87zm0-78.3c-143.67 0-260.56-116.88-260.56-260.56 0-143.67 116.88-260.57 260.56-260.57 143.67 0 260.57 116.88 260.57 260.56 0 143.67-116.91 260.57-260.57 260.57z"/><path d="m1395.46 1432.3c-32.56 0-48.98-39.59-25.94-62.62l135.69-135.67c34.03-34.03 85.89 17.84 51.87 51.86l-135.68 135.69c-6.89 6.89-16.19 10.75-25.93 10.75zm-106.61-48.45c-32.52 0-48.98-39.56-25.92-62.62l193.81-193.83c34.03-34.03 85.9 17.83 51.87 51.85l-193.83 193.83c-6.9 6.9-16.18 10.77-25.94 10.77z"/><path d="m2063.25 1264.64h-148.82c-5.31 0-10.38-2.1-14.14-5.85-82.79-82.65-118.08-197.53-107.94-351.2.69-10.52 9.42-18.69 19.97-18.69h54.88v117.76c0 26.33 40.04 26.35 40.02 0v-117.76h25.05v168.8c0 26.33 40.02 26.35 40.02 0v-168.8h29.09v123.83c0 26.35 40.02 26.33 40.02 0v-123.83h29.08v167.94c0 26.34 40.04 26.34 40.02 0v-167.94h54.86c10.55 0 19.28 8.17 19.97 18.69 10.14 153.69-25.15 268.57-107.94 351.2-3.75 3.73-8.82 5.85-14.13 5.85z"/><path d="m1988.85 1778.62c-52.07 0-94.43-42.37-94.43-94.43v-57.87h188.84v57.87c.02 52.06-42.35 94.43-94.41 94.43zm-94.43-192.32v-341.67c0-11.04 8.98-20.01 20.01-20.01h148.82c11.05 0 20.01 8.96 20.01 20.01v341.67z"/><path d="m889.56 1555.96h-342.13c-11.05 0-20.01-8.98-20.01-20.01v-114.45c0-11.05 8.96-20.01 20.01-20.01h342.15c11.04 0 20.01 8.97 20.01 20.01v114.45c-.01 11.05-8.96 20.01-20.02 20.01z"/><path d="m849.31 1778.62h-261.65c-33.22 0-60.24-27.02-60.24-60.26v-106.93c0-11.04 8.96-20.01 20.01-20.01h342.14c11.04 0 20.01 8.98 20.01 20.01v106.93c-.01 33.24-27.04 60.26-60.26 60.26z"/><path d="m832.96 1441.5h-228.93c-11.04 0-20.01-8.98-20.01-20.01v-103.26h268.96v103.27c-.02 11.04-8.96 20-20.02 20zm-248.94-163.29v-103.27c0-11.04 8.96-20.01 20.01-20.01h228.95c11.04 0 20.01 8.96 20.01 20.01v103.27h-268.96z"/><path d="m792.71 1194.96h-148.44c-11.04 0-20.01-8.96-20.01-20.01v-188.69c0-7.63 4.34-14.59 11.19-17.95l148.43-72.95c13.25-6.52 28.84 3.2 28.84 17.95v261.62c-.01 11.06-8.96 20.02-20.02 20.02z"/><path d="m899.63 1631.45h-362.28c-76.02 0-75.99-115.51 0-115.51h362.26c76.02 0 75.99 115.51.02 115.51z"/></g></symbol><symbol id="boombox" viewBox="0 0 2666.66 2666.66"><title>boombox</title><circle cx="1333.33" cy="1333.33" fill="#f06730" r="1333.33"/><g fill="#fefefe"><path d="m2132.71 2015.28h-1598.74c-29.75 0-53.94-24.19-53.94-53.94v-646.57h1706.61v646.55c0 29.75-24.19 53.96-53.93 53.96zm-642.99-828.83h-408.32c-26.33 0-26.33-40 0-40h408.32c26.32 0 26.33 40 0 40zm508.19 41.66c-81.16 0-81.16-123.33 0-123.33s81.16 123.33 0 123.33zm0-83.33c-28.51 0-28.53 43.34 0 43.34s28.51-43.34 0-43.34zm-166.66 83.33c-81.16 0-81.16-123.33 0-123.33s81.16 123.33 0 123.33zm0-83.33c-28.51 0-28.53 43.34 0 43.34s28.51-43.34 0-43.34zm-166.66 83.33c-81.16 0-81.16-123.33 0-123.33s81.16 123.33 0 123.33zm0-83.33c-28.51 0-28.53 43.34 0 43.34s28.51-43.34 0-43.34zm-743.74 81.25c-115.41 0-99.17 16.24-99.17-99.16 0-11.04 8.96-20 20-20 115.41 0 99.17-16.24 99.17 99.16 0 11.04-8.96 20-20 20zm-59.17-40h39.17v-39.17h-39.17zm-155.41 40c-115.41 0-99.17 16.24-99.17-99.16 0-11.04 8.96-20 20-20 115.4 0 99.17-16.24 99.17 99.16 0 11.04-8.96 20-20 20zm-59.18-40h39.17v-39.17h-39.17zm281.24 578.89c-66.28 0-120.19-53.93-120.19-120.19s53.91-120.17 120.19-120.17c66.26 0 120.18 53.91 120.18 120.17s-53.92 120.19-120.18 120.19zm0-200.37c-105.55 0-105.54 160.34 0 160.34 105.52 0 105.52-160.34 0-160.34zm810 200.95c-66.26 0-120.19-53.91-120.19-120.18 0-66.26 53.93-120.19 120.19-120.19s120.19 53.93 120.19 120.19-53.91 120.18-120.19 120.18zm0-200.37c-105.52 0-105.52 160.34 0 160.34 105.53 0 105.53-160.34 0-160.34zm-810 282.89c-112.09 0-203.28-91.19-203.28-203.29 0-112.09 91.19-203.3 203.28-203.3s203.29 91.19 203.29 203.3c0 112.08-91.2 203.29-203.29 203.29zm0-366.57c-90.04 0-163.29 73.23-163.29 163.28 0 90.02 73.25 163.27 163.29 163.27s163.29-73.23 163.29-163.27c0-90.05-73.25-163.28-163.29-163.28zm810 367.15c-112.09 0-203.3-91.19-203.3-203.29 0-112.09 91.19-203.3 203.3-203.3s203.3 91.19 203.3 203.3c0 112.08-91.2 203.29-203.3 203.29zm0-366.57c-90.04 0-163.28 73.23-163.28 163.28 0 90.02 73.23 163.27 163.28 163.27 90.06 0 163.29-73.23 163.29-163.27 0-90.05-73.23-163.28-163.29-163.28zm-289.46 107.82h-231.79c-26.32 0-26.32-40 0-40h231.79c26.33 0 26.33 40 0 40zm0 150.93h-231.79c-26.32 0-26.32-40 0-40h231.79c26.33 0 26.33 40 0 40zm-968.85-466.01v-202.71c0-29.75 24.19-53.94 53.94-53.94h1598.73c29.75 0 53.94 24.19 53.94 53.94v202.72h-1706.61z"/><path d="m1975.49 708.04h-1284.32v330.09c0 48.28-73.33 48.28-73.33 0v-366.76c0-20.24 16.43-36.67 36.67-36.67h1357.65c20.24 0 36.67 16.43 36.67 36.67v366.76c0 48.27-73.33 48.26-73.33 0v-330.09z"/><path d="m1895.81 1058.13c-11.04 0-20-8.96-20-20h-75.85v-151.24h95.85c11.04 0 20 8.96 20 20v131.23c0 11.05-8.95 20.01-20 20.01zm-135.85-20h-71.66v-151.23h71.66zm-111.66 0h-71.67v-151.23h71.67zm-111.67 0h-71.65v-151.23h71.65zm-111.64 0h-71.67v-151.23h71.67zm-111.67 0h-71.67v-151.23h71.67zm-111.67 0h-71.65v-151.23h71.65zm-111.64 0h-71.67v-151.23h71.67zm-111.67 0h-71.66v-151.23h71.66zm-111.66 0h-75.85c0 26.33-40 26.33-40 0v-131.23c0-11.04 8.96-20 20-20h95.85z"/></g></symbol><symbol id="sneaker" viewBox="0 0 2666.66 2666.66"><title>sneaker</title><circle cx="1333.33" cy="1333.33" fill="#5e162a" r="1333.33"/><g fill="#fefefe"><path d="m1143.19 1698.48c-141.75 0-607.4-11.91-648.1-165.12l-15.08-91.91c156.17 88.03 352.02 100.78 527.65 93.22l1168.34-50.26c2.96 10.78 5.67 24.31 7.94 41.35 12.24 92.24-16.93 154.92-80.05 171.98l-960.69.72z"/><path d="m935.28 1269.11c98.46 90.37 576.26 92.23 1001.95 53.66 46.61-61.19 133.13-93.39 211.75-107.64l-2.66-109.41c-2.43-100-82.28-137.83-132.92-39.37-1.7 3.33-4.3 6.13-7.5 8.13-357.27 223.17-505.38 30.37-509.33 11.85l-25.31-118.14c-32.61 11.47-67.83 26.48-104.3 43.81l51.77 89.68c13.85 24.01-22.52 44.3-36.07 20.83l-53.18-92.1c-25.48 12.88-51.34 26.67-77.12 40.98l52.41 90.76c13.85 24-22.5 44.3-36.08 20.83l-52.61-91.11c-25.45 14.6-50.63 29.53-75.11 44.41l52.8 91.46c13.85 24.01-22.51 44.29-36.07 20.83l-52.22-90.47c-67.33 41.87-127.34 81.79-170.2 111.04z"/><path d="m1947.87 1459.49 206.84-8.9-4.7-193.36c-97.93 18.54-226.3 69.5-202.14 202.26z"/><path d="m1006.16 1500 899.68-38.7c-5.88-36.09-2.69-67.45 7.22-94.61-234.5 19.89-893.61 57.82-1014.58-73.81-122.2 65.46-380.82 59.01-411.72 112.41 55.51 32.71 193.19 83.58 519.39 94.71z"/></g></symbol><symbol id="crown" viewBox="0 0 2666.66 2666.66"><title>crown</title><circle cx="1333.33" cy="1333.33" fill="#00b389" r="1333.33"/><g fill="#fefefe"><path d="m765.08 1675.49c-8.37 0-16.17-5.29-18.97-13.65l-159.24-475.58c-7.23-21.62 20.23-34.05 33.16-20.77l14.08-10.99c-11.35-15.09 6.02-40.45 26.15-29.25l408.56 226.98 214.78-425.35c10.2-20.21 38-9.74 38.1 8.52l23.28 1.13c-1.07-18.94 27.65-30.28 38.06-9.65l214.79 425.35 408.57-226.98c19.69-10.94 36.77 13.09 26.84 28.27l15.02 10.5c13.45-10.8 38.47 1.51 31.51 22.25l-159.24 475.57c-6.59 19.72-35.24 17.31-38.69-3.06h-1097.03c-1.57 9.22-9.6 16.71-19.73 16.71zm121.46-119.37c-95.7 0-95.67-145.43 0-145.43s95.71 145.43 0 145.43zm0-105.43c-43.04 0-43.05 65.4 0 65.4s43.04-65.4 0-65.4zm893.56 105.43c-95.71 0-95.67-145.43 0-145.43 95.69 0 95.72 145.43 0 145.43zm0-105.43c-43.03 0-43.03 65.4 0 65.4 43.05 0 43.04-65.4 0-65.4zm-446.78 117.97c-6.36 0-12.36-3.04-16.13-8.18l-121.58-165.67c-5.17-7.04-5.17-16.61 0-23.65l121.58-165.67c7.54-10.26 24.71-10.26 32.25 0l121.58 165.67c5.17 7.04 5.17 16.61 0 23.65l-121.58 165.67c-3.76 5.15-9.76 8.18-16.13 8.18zm-96.77-185.67 96.77 131.86 96.78-131.86-96.78-131.85z"/><path d="m1880.47 1904.83h-1094.3c-55.32 0-100.32-45.01-100.32-100.33v-71.53c0-55.3 45-100.33 100.32-100.33h1094.3c55.31 0 100.33 45.01 100.33 100.33v71.52c0 55.31-45.01 100.33-100.33 100.33zm-55.11-84.34c-28.24 0-20-42.94-20-83.48 0-26.33 40-26.32 40 0 0 40.57 8.25 83.48-20 83.48zm-164.01 0c-28.24 0-20-42.94-20-83.48 0-26.33 40-26.32 40 0 0 40.61 8.25 83.48-20 83.48zm-164.01 0c-28.25 0-20-42.94-20-83.48 0-26.33 40-26.32 40 0 0 40.55 8.24 83.48-20 83.48zm-164.02 0c-28.24 0-20-42.94-20-83.48 0-26.33 40-26.32 40 0 0 40.57 8.25 83.48-20 83.48zm-164.01 0c-28.25 0-20-42.94-20-83.48 0-26.33 40-26.32 40 0 0 40.58 8.25 83.48-20 83.48zm-164.01 0c-28.24 0-20-42.94-20-83.48 0-26.33 40-26.32 40 0 0 40.57 8.25 83.48-20 83.48zm-164.02 0c-28.25 0-20-42.94-20-83.48 0-26.33 40-26.32 40 0 0 40.61 8.25 83.48-20 83.48z"/><path d="m1797.28 1284.24c-6.52 0-175 71.64-213.31 81.92-7.74 0-9.15 6.5-5.53-7.35-19.74-31.73-84.8-155.31-88.22-155.31-19.4 0-27.51-25.16-11.48-36.38l144.83-101.37c15.67-10.97 32.09 3.46 31.54 17.91 20.99-9.37 69.46-7.52 78.13 9.6l81.89 161.93c6.78 13.41-3.2 29.04-17.84 29.04z"/><path d="m1177.66 1203.51c-3.26 0-73.81 124.28-100.43 166.55l5.68 24.74c-3.53 6.96-205.02-110.56-212.31-110.56-14.64 0-24.62-15.6-17.83-29.03l81.89-161.93c11.88-23.47 79.34 1.56 85.29 27.34-2.78-43.48 2.54-70.12 24.37-54.87l144.83 101.37c16 11.21 7.94 36.38-11.49 36.38z"/><path d="m1333.32 962.47c-55.3 0-100.31-45-100.31-100.31s45-100.32 100.31-100.32c55.32 0 100.33 45 100.33 100.32 0 55.31-45.03 100.31-100.33 100.31z"/><path d="m2086.31 1204.05c-55.31 0-100.32-45-100.32-100.31 0-55.32 45-100.32 100.32-100.32 55.31 0 100.33 45 100.33 100.32 0 55.31-45.03 100.31-100.33 100.31z"/><path d="m580.33 1204.05c-55.31 0-100.32-45-100.32-100.31 0-55.32 45-100.32 100.32-100.32 55.31 0 100.31 45 100.31 100.32 0 55.31-45 100.31-100.31 100.31z"/><path d="m981.04 1129.11c-109.54 0-109.54-166.46 0-166.46 109.55 0 109.55 166.46 0 166.46z"/><path d="m1686.83 1129.11c-109.55 0-109.55-166.46 0-166.46 109.56 0 109.57 166.46 0 166.46z"/></g></symbol><symbol id="cassette-tape" viewBox="0 0 2666.66 2666.66"><title>cassette-tape</title><circle cx="1333.33" cy="1333.33" fill="#f06730" r="1333.33"/><g fill="#fefefe"><path d="m2133.79 1914.58h-192.6l-78.56-181.87c-3.14-7.36-10.37-12.15-18.39-12.15h-1021.86c-8.02 0-15.25 4.8-18.41 12.15l-78 181.87h-193.1c-29.14 0-52.85-23.7-52.85-52.86v-1056.78c0-29.14 23.7-52.84 52.85-52.84h193.85l77.28 181.85c3.15 7.37 10.39 12.15 18.4 12.15h1021.86c8.02 0 15.25-4.78 18.42-12.15l77.78-181.86h193.33c29.15 0 52.86 23.7 52.86 52.85v1056.78c-.02 29.15-23.72 52.87-52.86 52.87zm-1204.28-383.31c-109.13 0-197.94-88.8-197.94-197.94 0-109.13 88.8-197.94 197.94-197.94 12.54 0 24.81 1.19 36.72 3.43h734.21c11.9-2.24 24.17-3.43 36.72-3.43 109.13 0 197.94 88.8 197.94 197.94 0 109.13-88.79 197.94-197.94 197.94-12.52 0-24.76-1.18-36.63-3.41h-734.37c-11.88 2.23-24.12 3.41-36.64 3.41zm-159.32-779.18 1126.76-.01-65.89 154.01h-995.43zm1127.44 1162.49h-1128.11l66.08-154.01h995.45l66.57 154.01z"/><path d="m929.5 1262.04c-93.83 0-93.82 142.57 0 142.57 93.83 0 93.85-142.57 0-142.57z"/><path d="m771.57 1333.33c0 96.22 84.04 172.52 189.59 154.74 71.96-14.7 126.28-78.48 126.28-154.74 0-88.52-72.28-157.94-157.94-157.94-87.09 0-157.94 70.86-157.94 157.94zm269.22 0c.01 61.37-49.91 111.3-111.29 111.3-61.36 0-111.29-49.93-111.29-111.3 0-61.36 49.93-111.29 111.29-111.29s111.29 49.93 111.29 111.29z"/><path d="m1053.05 1487.85h560.56c-99.12-79.39-99.12-229.62-.02-309.03h-560.52c99.1 79.41 99.09 229.63-.02 309.03zm394.85-134.52h-229.16c-26.32 0-26.33-40 0-40h229.16c26.33 0 26.33 40 0 40z"/><path d="m1737.15 1262.04c-93.83 0-93.83 142.57 0 142.57 93.82 0 93.83-142.57 0-142.57z"/><path d="m1579.22 1333.33c0 88.46 72.24 157.93 157.93 157.93 87.08 0 157.93-70.83 157.93-157.93 0-95.84-82.83-172.19-189.88-154.69-71.82 14.81-125.97 78.55-125.97 154.69zm157.93 111.3c-61.37 0-111.31-49.93-111.31-111.3 0-61.36 49.93-111.29 111.31-111.29 61.37 0 111.3 49.93 111.3 111.29 0 61.37-49.93 111.3-111.3 111.3z"/></g></symbol><symbol id="notebook" viewBox="0 0 2666.66 2666.66"><title>notebook</title><circle cx="1333.33" cy="1333.33" fill="#ffb500" r="1333.33"/><g fill="#fefefe"><path d="m1881.93 2186.18h-1097.2c-47.69 0-86.5-38.8-86.5-86.51v-1196.71h1270.21v1196.73c-.02 47.69-38.8 86.5-86.51 86.5zm-128.84-298.24h-750.2c-26.33 0-26.33-40 0-40h750.2c26.33 0 26.33 40 0 40zm0-257.67h-839.53c-26.33 0-26.33-40 0-40h839.53c26.33 0 26.33 40 0 40zm0-257.69h-839.53c-26.33 0-26.33-40 0-40h839.53c26.33 0 26.33 40 0 40zm0-257.67h-839.53c-26.33 0-26.33-40 0-40h839.53c26.33 0 26.33 40 0 40zm-1054.86-251.95v-159.74c0-47.69 38.8-86.5 86.5-86.5h59.92v105.19c0 58.07 47.21 105.29 105.28 105.29 58.06 0 105.27-47.21 105.27-105.27v-105.2h45.03v105.19c0 58.07 47.21 105.29 105.28 105.29 58.06 0 105.27-47.21 105.27-105.27v-105.2h45.03v105.19c0 58.07 47.21 105.29 105.28 105.29 58.06 0 105.27-47.21 105.27-105.27v-105.2h45.03v105.19c0 58.07 47.21 105.29 105.28 105.29 58.06 0 105.27-47.21 105.27-105.27v-105.2h59.97c47.7 0 86.51 38.8 86.51 86.5v159.74h-1270.21z"/><path d="m949.93 793.86c-39.68 0-71.95-32.28-71.95-71.96v-170.38c0-94.7 143.89-94.71 143.89 0v170.4c0 39.67-32.28 71.94-71.94 71.94z"/><path d="m1205.51 793.86c-39.68 0-71.95-32.28-71.95-71.96v-170.38c0-94.7 143.89-94.71 143.89 0v170.4c0 39.67-32.28 71.94-71.94 71.94z"/><path d="m1461.1 793.86c-39.68 0-71.95-32.28-71.95-71.96v-170.38c0-94.7 143.89-94.71 143.89 0v170.4c0 39.67-32.28 71.94-71.94 71.94z"/><path d="m1716.69 793.86c-39.68 0-71.95-32.28-71.95-71.96v-170.38c0-94.7 143.89-94.71 143.89 0v170.4c0 39.67-32.28 71.94-71.94 71.94z"/></g></symbol><symbol id="stage" viewBox="0 0 2666.66 2666.66"><title>stage</title><circle cx="1333.33" cy="1333.33" fill="#f06730" r="1333.33"/><g fill="#fefefe"><path d="m698.73 642.05h1269.2v-122.44h-1269.2z"/><path d="m1987.73 681.66h-1308.81c-10.93 0-19.81-8.87-19.81-19.81v-162.05c0-10.93 8.87-19.81 19.81-19.81h1308.81c10.93 0 19.81 8.87 19.81 19.81v162.05c.01 10.93-8.87 19.81-19.81 19.81z"/><path d="m895 1538.09h-162.06c-10.93 0-19.81-8.89-19.81-19.81v-111.07h201.68v111.07c0 10.93-8.87 19.8-19.81 19.8zm-181.87-170.49v-109.06h201.68v109.06zm0-148.67v-109.05h201.68v109.05zm0-148.66v-109.06h201.68v109.06zm0-148.68v-109.04h201.68v109.04zm0-148.66v-111.07c0-10.93 8.87-19.81 19.81-19.81h162.06c10.93 0 19.81 8.87 19.81 19.81v111.07z"/><path d="m2027.2 1786.35h-389.45v-126.27c0-10.92-8.87-19.81-19.81-19.81h-569.23c-10.93 0-19.81 8.87-19.81 19.81v126.27h-389.45c-10.93 0-19.81-8.88-19.81-19.81v-248.26c0-10.93 8.87-19.81 19.81-19.81h1387.74c10.93 0 19.8 8.89 19.8 19.81v248.26c.01 10.93-8.87 19.81-19.8 19.81zm-429.06 0h-529.62v-106.46h529.62z"/><path d="m1933.71 1538.09h-162.03c-10.93 0-19.81-8.89-19.81-19.81v-94.56h201.64v94.57c.02 10.93-8.87 19.8-19.8 19.8zm-181.84-153.98v-109.06h201.64v109.06zm0-148.68v-109.05h201.64v109.05zm0-148.66v-109.06h201.64v109.06zm0-148.68v-109.04h201.64v109.04zm0-148.66v-127.58c0-10.93 8.88-19.81 19.81-19.81h162.03c10.93 0 19.8 8.87 19.8 19.81v127.58z"/><path d="m1744.67 2047.48h-822.67c-47.82 0-47.82-72.63 0-72.63h822.67c47.81 0 47.81 72.63 0 72.63zm0-139.19h-822.67c-47.82 0-47.82-72.62 0-72.62h822.67c47.81 0 47.81 72.62 0 72.62zm0 278.37h-822.67c-47.82 0-47.82-72.63 0-72.63h822.67c47.81 0 47.81 72.63 0 72.63z"/><path d="m1623.59 801.17h15.82c47.82 0 47.82 72.62 0 72.62h-104.28c-47.82 0-47.81-72.62 0-72.62h15.83v-28.24h-181.33v28.24h15.83c47.82 0 47.82 72.62 0 72.62h-104.28c-47.82 0-47.82-72.62 0-72.62h15.83v-28.24h-181.31v28.24h15.81c47.81 0 47.83 72.62 0 72.62h-104.28c-47.82 0-47.82-72.62 0-72.62h15.83v-28.24h-148.08c-47.82 0-47.82-72.62 0-72.62h876.68c47.82 0 47.82 72.62 0 72.62h-148.08v28.24z"/><path d="m1118.93 1538.09c-10.93 0-8.89-19.76-19.81-19.81l-151.31-.59v-371.73h171.12c10.93 0 19.81 8.87 19.81 19.81v352.5c0 10.95-8.87 19.82-19.81 19.82zm-78.95-62.92c-82.62 0-82.64-125.57 0-125.57 82.63 0 82.62 125.57 0 125.57zm0-85.96c-30.51 0-30.5 46.34 0 46.34 30.48 0 30.5-46.34 0-46.34zm0-54.73c-82.63 0-82.63-125.56 0-125.56s82.62 125.56 0 125.56zm0-85.95c-30.51 0-30.5 46.34 0 46.34 30.48 0 30.5-46.34 0-46.34z"/><path d="m1547.72 1538.09c-10.93 0-19.81-8.89-19.81-19.81v-352.52c0-10.93 8.88-19.81 19.81-19.81h171.14c0 46.13-2.93 369.97 2.13 387.21l-153.47-14.9c-10.89-1.06-8.87 19.82-19.8 19.82zm78.96-62.92c-82.63 0-82.63-125.57 0-125.57 82.65 0 82.63 125.57 0 125.57zm0-85.96c-30.5 0-30.48 46.34 0 46.34 30.5 0 30.51-46.34 0-46.34zm0-54.73c-82.64 0-82.61-125.56 0-125.56 82.65 0 82.63 125.56 0 125.56zm0-85.95c-30.5 0-30.48 46.34 0 46.34 30.5 0 30.51-46.34 0-46.34z"/></g></symbol><symbol id="cap" viewBox="0 0 2666.66 2666.66"><title>cap</title><circle cx="1333.33" cy="1333.33" fill="#e9225b" r="1333.33"/><g fill="#fefefe"><path d="m2000.05 1615.24c-72.39 5.83-140.65 11-206.74 15.3.26-1.77.31-3.6.11-5.47-28.27-268.95-132.39-626.91-340.12-851.65 313.96 0 566.76 253.25 566.76 564.93v256.89c-.02 11.04-8.97 20.01-20.02 20.01zm-245.78 17.74c-135.4 8.16-263.19 12.37-400.94 10.76v-870.33h42.94c219.56 213.89 328.57 582.18 357.37 856.22.12 1.15.33 2.27.62 3.35zm-440.94 10.13c-120.72-2.37-250.14-9.22-399.55-21.76 29.89-272.92 138.78-635.85 356.47-847.93h43.07v869.7zm-439.43-25.2c-70.88-6.28-146.26-13.79-227.28-22.67v-256.89c0-311.66 252.85-564.93 566.61-564.93-206.16 223.04-310.17 576.57-339.32 844.5z"/><path d="m1333.33 2103.41c-311.86 0-590.76-24.5-765.2-67.2-101.39-24.8-107.12-136.67-58.03-218.65l139.35-232.69c4.35-7.25 12.83-10.94 21.09-9.33 362.43 71.74 963.19 71.89 1325.56 0 8.3-1.63 16.74 2.08 21.1 9.33l139.34 232.69c49.1 81.99 43.37 193.84-58 218.65-174.45 42.72-453.35 67.2-765.21 67.2z"/><path d="m1166.71 741.76c.12-4.02.2-8.07.2-12.09 0-91.76 74.65-166.43 166.41-166.43s166.43 74.65 166.43 166.43c0 4.02.08 8.06.2 12.08-14.8-1.1-29.73-1.67-44.8-1.67h-243.6c-15.08 0-30.02.57-44.82 1.68z"/></g></symbol><symbol id="live-news" viewBox="0 0 2666.66 2666.66"><title>live-news</title><circle cx="1333.33" cy="1333.33" fill="#5e162a" r="1333.33"/><g fill="#fefefe"><path d="m1973.52 2062.54h-1280.37c-48.98 0-88.82-39.85-88.82-88.84v-938.69c0-48.98 39.84-88.82 88.82-88.82h1280.36c48.98 0 88.81 39.84 88.81 88.82v938.69c.02 48.99-39.83 88.84-88.8 88.84zm-418.13-139.66h-731.66c-39.11 0-70.92-31.81-70.92-70.92v-695.2c0-39.11 31.81-70.92 70.92-70.92l731.65.01c39.11 0 70.92 31.81 70.92 70.92v695.2c.01 39.1-31.81 70.91-70.92 70.91zm351.59-68.01h-164.89c-26.07 0-26.06-39.61 0-39.61h164.89c26.06 0 26.06 39.61 0 39.61zm0-104.59h-164.89c-26.07 0-26.06-39.6 0-39.6h164.89c26.06 0 26.06 39.6 0 39.6zm-82.45-119.09c-57.55 0-104.36-46.81-104.36-104.35 0-57.55 46.81-104.37 104.36-104.37 57.56 0 104.36 46.83 104.36 104.37s-46.82 104.35-104.36 104.35zm0-169.1c-85.2 0-85.24 129.48 0 129.48 85.25 0 85.19-129.48 0-129.48zm0-99.51c-57.55 0-104.36-46.82-104.36-104.36s46.81-104.35 104.36-104.35c57.56 0 104.36 46.81 104.36 104.35s-46.82 104.36-104.36 104.36zm0-169.1c-85.21 0-85.22 129.49 0 129.49 85.23 0 85.2-129.49 0-129.49z"/><path d="m1897.59 2178.15h-258.83c-8.76 0-16.46-5.76-18.98-14.13l-34.52-115.61c-3.78-12.67 5.75-25.47 18.97-25.47l293.35.01c10.93 0 19.8 8.88 19.8 19.8v115.61c.01 10.93-8.87 19.8-19.8 19.8z"/><path d="m1027.92 2178.15h-258.85c-10.93 0-19.8-8.88-19.8-19.8v-115.61c0-10.93 8.87-19.8 19.8-19.8h293.35c13.23 0 22.76 12.78 18.97 25.47l-34.5 115.61c-2.51 8.37-10.23 14.13-18.97 14.13z"/><path d="m1373.15 863.54c-30.71 0-47.56-36.06-27.82-59.61l267.4-319.08c30.54-36.44 86.4 9.94 55.65 46.63l-267.38 319.07c-6.92 8.26-17.08 13-27.84 13zm-81.18.36c-9.65 0-18.85-3.82-25.67-10.64l-319.44-319.43c-33.68-33.68 17.66-85.02 51.34-51.34l319.43 319.44c22.8 22.8 6.55 61.98-25.67 61.98z"/><path d="m1110.1 1844.07h-86.8c-15.35 0-28.22-12.31-29.3-28l-19.07-280.12c-.77-11.37 8.33-21.15 19.74-21.15h143.99c11.41 0 20.53 9.79 19.75 21.15l-19.07 280.11c-.94 15.67-13.81 28.02-29.24 28.02z"/><path d="m1148.4 1407.94h-165.67c-21.96 0-47.03-44.89-53.85-85h273.91c-3.75 27.49-29.25 85-54.39 85zm-219.9-124.61c9.65-66.99 67.42-118.65 137.06-118.65 75.08 0 127.22 55.6 136.86 118.65h-273.91z"/><path d=""/><path d="m1176.42 1554.42h-221.72c-21.82 0-39.59-17.76-39.59-39.61v-106.89c0-21.84 17.77-39.61 39.59-39.61h221.72c21.84 0 39.59 17.76 39.59 39.61v106.87c0 21.84-17.75 39.62-39.59 39.62z"/><path d="m1391.25 1524.21c-10.93 0-19.8-8.88-19.8-19.8v-112.71c0-26.07 39.61-26.06 39.61 0v112.71c0 10.92-8.87 19.8-19.8 19.8z"/><path d="m1423.22 1836.95h-66.54c-10.93 0-19.8-8.88-19.8-19.8v-115.15c0-10.93 8.87-19.8 19.8-19.8h69.09c26.07 0 26.06 39.6 0 39.6h-49.27v75.54c30.54 0 66.52-6.75 66.52 19.8 0 10.92-8.87 19.82-19.8 19.82z"/><path d="m1421.94 1780.33c-41.5 0-85.06 8.35-85.06-19.8 0-28.16 43.56-19.8 85.06-19.8 26.07 0 26.07 39.61 0 39.61z"/><path d="m1391.25 1663.18c-7.6 0-14.52-4.34-17.84-11.18l-52.98-109.64c-11.34-23.49 24.31-40.72 35.66-17.24l35.16 72.74 35.15-72.74c11.36-23.46 47.02-6.25 35.68 17.24l-52.98 109.64c-3.3 6.83-10.24 11.18-17.84 11.18z"/><path d="m1425.81 1349.8h-69.1c-10.93 0-19.8-8.88-19.8-19.8v-140.39c0-26.07 39.6-26.07 39.6 0v120.59c32.14 0 69.1-6.99 69.1 19.8 0 10.93-8.87 19.8-19.8 19.8z"/><path d="m1499.02 985.8h-331.11c-12.02 0-21.28-10.66-19.61-22.58 12.9-91.54 92.46-160.58 185.03-160.58 150.35 0 223.05 183.16 165.7 183.16z"/></g></symbol><symbol id="news" viewBox="0 0 2666.66 2666.66"><title>news</title><circle cx="1333.33" cy="1333.33" fill="#05aac0" r="1333.33"/><g fill="#fefefe"><path d="m764.82 1983.93c-130.96 0-114.08 15.85-114.08-80.67 0-11.04 8.96-20 20-20 130.96.01 114.08-15.84 114.08 80.68 0 11.02-8.96 19.99-20 19.99z"/><path d="m899.02 1486.91h-366.2c-29.05 0-52.69-23.63-52.69-52.7v-176.56c0-29.05 23.63-52.69 52.69-52.69h366.2c29.05 0 52.69 23.63 52.69 52.69v176.56c0 29.05-23.63 52.7-52.69 52.7zm-55.18-75.39c-11.04 0-20-8.97-20-20v-91.17c0-26.33 39.99-26.33 39.99 0v91.17c0 11.03-8.94 20-20 20zm-85.28 0c-11.04 0-20-8.97-20-20v-91.17c0-26.33 39.99-26.33 39.99 0v91.17c0 11.03-8.96 20-20 20zm-85.29 0c-11.04 0-20-8.97-20-20v-91.17c0-26.33 39.99-26.33 39.99 0v91.17c0 11.03-8.94 20-20 20zm-85.28 0c-11.04 0-20-8.97-20-20v-91.17c0-26.33 40-26.33 40 0v91.17c0 11.03-8.94 20-20 20z"/><path d="m789.45 1923.25h-143.35c-18.9 0-34.25-14.75-35.69-34.27l-31.5-420.58c-.87-11.54 8.36-21.5 19.94-21.5h237.84c11.57 0 20.81 9.96 19.94 21.5l-31.5 420.6c-1.45 19.54-16.78 34.26-35.69 34.26z"/><path d="m852.72 1244.95h-273.63c-5.2 0-10.22-2.02-13.96-5.68-40.09-39.14-60.44-86.77-64.47-134.67h430.48c-4.03 47.91-24.38 95.54-64.47 134.67-3.74 3.65-8.74 5.68-13.96 5.68zm-351.68-180.34c10.5-102.76 93.45-196.01 214.87-196.01s204.37 93.25 214.87 196.01z"/><path d="m1413.32 2106.53c-199.5 0-386.01-74.64-528.13-208.24l57.07-244.62 127.06-145.85c81.67 36.13 124.04-14.04 127.09-65.8l-17.69-109.23c-1.2-7.24-6.29-13.25-13.23-15.63l-180.5-61.94c-.83-29.65-16.72-55.58-40.28-70.41 55.9-126.92-7.48-281.6-136.71-332.44 185.46-233.15 487.87-338.87 777.19-272.95l-86.26 149.39-261.98 70.2c-5.94 1.59-10.81 5.82-13.22 11.46l-88.11 206.2c-2.75 6.43-1.95 13.8 2.11 19.48l61.69 86.35c12.65 17.8 100.83 68.28 141.32-45.05l298.63-96.22 183.99 117.08 148.02 151.42c8.77 31.98 57.14 186.91 172.81 196.67 2.29.19 19.75.33 33.98.41-55.08 372.74-377.06 659.72-764.85 659.72zm-428.29-809.02 156.2 53.61 15.04 90.22c-.89 6.32-4.86 27.25-19.33 35.35-33.59 18.81-67.23-30.28-87.74-6.72l-140.45 161.22c-4.57 5.26-25.8 94.78-43.91 173.93l21.33-284.89h12.84c47.45 0 86.02-38.58 86.02-86.03v-136.71zm458.3 646.92c-31.19 0-19.19-65.12-55.52-65.12-35.59 0-51.66 44.24-73.61 41.67-155.37-18.9-175.46-95.71-177.91-110.71-55.85-210.63 94.95-263.48 96.47-264l29.79-.19c117.02 0 124.38-61.46 135.43-70.25l78.76-62.41-16.4-114.69c-.87-6.24 1.21-12.51 5.65-16.97 54.98-55.05 122.23-138.35 190.96-138.35 72.87 0 108.59 90.78 104.22 107.05l-24.28 90.59 57.19 57.17c5.04 5.06 7.03 12.43 5.16 19.33l-33.85 126.41c67.57 81.64 90.58 138.13 72.4 177.35-16.39 35.35-63.56 46.3-119.29 39.55l-147.1 160.94c-8.5 9.3-116.11 22.65-128.08 22.65zm-55.5-105.12c22.41 0 51.69 11.43 69.69 62.91l89.25-12.72 149.41-163.46c10.75-11.76 21.48-3.37 52.05-3.37 13.51 0 45.72-1.76 53.34-18.21 5.04-10.87 7.98-46.57-73.41-142.73-4.24-5-5.74-11.78-4.04-18.11l33.57-125.29-57.19-57.17c-5.04-5.06-7.03-12.43-5.17-19.33l25.73-96.01c-.15-3.81-37.28-120.14-138.53-24.01l-81.11 81.14 16.61 116.16c1 7.04-1.81 14.1-7.37 18.51l-83.6 66.24c-9.75 21.89-50.2 89.07-184.81 81.61-18.87 8.02-109.79 55.8-66.98 215.55.48 1.83 6.08 60.42 133.84 78.92 14.08-14.11 45.06-40.63 78.71-40.63zm237.6-1249.58c350.85 100.21 593.62 439.06 557.58 817.13-14.27-.01-32.1-.11-34.36-.28-98.35-7.7-139.44-170.11-139.86-171.81-2.98-12.35-138.71-145.83-158.44-166.08l-197.41-126.24c-5.04-3.2-11.22-3.97-16.87-2.17l-317.22 102.22c-22.03 7.09-16.44 56.24-49.65 65.81-15.94 4.6-33.72-7.47-38.83-11.31l-53.54-74.95 79.87-186.91 260.61-69.82c5.11-1.37 9.48-4.72 12.13-9.31l96-166.25z"/></g></symbol><symbol id="video-camera" viewBox="0 0 2666.66 2666.66"><title>video-camera</title><circle cx="1333.33" cy="1333.33" fill="#00b389" r="1333.33"/><g fill="#fefefe"><path d="m1534.93 1765.59h-941.08c-62.7 0-113.7-51.02-113.7-113.72v-601.36c0-62.7 51-113.7 113.7-113.7h941.08c62.71 0 113.72 51 113.72 113.7v601.35c0 62.72-51.02 113.73-113.72 113.73zm-64.53-270.5h-472.14c-11.04 0-20-8.97-20-20v-368c0-11.04 8.96-20 20-20l472.14.01c11.04 0 20 8.96 20 20v368c.02 11.04-8.96 19.99-20 19.99zm-452.15-39.99h432.15v-328h-432.15zm-158.88-320.15h-201c-26.33 0-26.33-39.99 0-39.99h201c26.31 0 26.34 39.99 0 39.99zm0 117.44h-201c-26.33 0-26.33-40 0-40h201c26.31 0 26.34 40 0 40zm0 117.46h-201c-26.32 0-26.33-40 0-40h201c26.32 0 26.33 40 0 40zm0 117.42h-201c-26.32 0-26.32-39.99 0-39.99h201c26.31 0 26.33 39.99 0 39.99zm615.52 125.91h-821.03c-26.32 0-26.32-40 0-40h821.03c26.32 0 26.33 40 0 40z"/><path d="m1151.78 976.81h-174.79c-11.04 0-20-8.96-20-20v-168.63c0-11.04 8.96-20 20-20h174.79c11.04 0 20 8.96 20 20v168.63c0 11.04-8.94 20-20 20z"/><path d="m1857.07 1591.82h-228.42c-11.04 0-20-8.97-20-20v-441.26c0-11.04 8.97-20 20-20h228.42c11.04 0 20 8.96 20 20v441.24c0 11.06-8.95 20.01-20 20.01z"/><path d="m2166.52 1733.39c-11.23 0-283.59-127.76-317.77-143.39-23.98-10.97-7.26-47.32 16.62-36.37v-404.89c-23.9 10.95-40.59-25.41-16.62-36.37l309.45-141.56c13.11-6.03 28.31 3.7 28.31 18.17v724.37c0 11.09-9.07 20.03-20 20.03z"/><path d="m1351.3 808.19h-374.3c-11.04 0-20-8.96-20-20v-147.8c0-11.04 8.96-20 20-20h374.3c11.04 0 20 8.96 20 20v147.81c0 11.04-8.96 19.99-20 19.99z"/><path d="m1584.07 861.41h-232.78c-11.04 0-20-8.96-20-20v-254.26c0-11.04 8.96-20 20-20h232.78c81.13 0 147.13 65.99 147.13 147.11 0 81.13-66.02 147.13-147.13 147.13z"/><path d="m1501.81 1932.54h-874.85c-11.04 0-20-8.97-20-20v-166.94c0-11.04 8.96-20 20-20h874.85c11.04 0 20 8.97 20 20v166.94c0 11.04-8.96 20-20 20z"/><path d="m1325.35 2099.5h-521.93c-11.04 0-20-8.97-20-20v-166.96c0-11.04 8.96-20 20-20h521.93c11.04 0 20 8.97 20 20v166.94c0 11.04-8.94 20.02-20 20.02z"/></g></symbol><symbol id="live-news-1" viewBox="0 0 2666.66 2666.66"><title>live-news-1</title><circle cx="1333.33" cy="1333.33" fill="#ffb500" r="1333.33"/><g fill="#fefefe"><path d="m1860.41 2186.49h-1054.18c-39.66 0-71.94-32.29-71.94-71.97v-280.56c0-39.67 32.27-71.97 71.94-71.97l1054.19-.01c39.66 0 71.94 32.29 71.94 71.97v280.57c0 39.69-32.29 71.98-71.96 71.98zm-217.87-90.69h-93.19c-11.04 0-20-8.97-20-20v-199.6c0-11.04 8.97-20 20-20h96.77c26.33 0 26.31 40 0 40h-76.76v61.46h71.38c26.32 0 26.32 39.99 0 39.99h-71.38v58.13h73.2c26.33 0 26.3 40.01-.01 40.01zm-258.9 4.08c-8.24 0-15.64-5.06-18.64-12.73l-81.11-207.76c-9.59-24.51 27.69-39.02 37.24-14.54l62.49 160.04 62.49-160.04c9.57-24.5 46.83-9.98 37.25 14.54l-81.13 207.76c-2.96 7.68-10.37 12.73-18.6 12.73zm-179.2 1.17c-11.04 0-20-8.97-20-20v-213.59c0-26.33 39.99-26.31 39.99 0v213.59c0 11.04-8.94 20-20 20zm-88.65 0h-95.26c-11.04 0-20-8.97-20-20v-210.09c0-26.33 40-26.31 40 0v190.08l75.26.01c26.32 0 26.32 40 0 40z"/><path d="m1264.93 914.33c-29.8 0-37.71-41.07-58.18-14.36-29.29 38.22-87.49-6.41-58.2-44.61 59.75-77.93 163.14-18.48 152.01 31.1-3.64 16.2-19 27.87-35.64 27.87zm-6.98 37.56c0 29.63 8.22 83.17-36.66 83.17-45.96 0-36.66-58.27-36.66-83.17 0-48.28 73.32-48.28 73.32 0zm188.2 84.48c-46.66 0-36.67-59.77-36.67-89.82 0-48.28 73.33-48.28 73.33 0 0 30.05 10 89.82-36.66 89.82zm43.66-122.04c-29.79 0-37.74-41.08-58.19-14.37-29.24 38.19-87.45-6.44-58.2-44.6 59.68-77.84 163-18.64 152 30.99-3.59 16.23-18.91 27.98-35.61 27.98zm-156.09 274.2c-43.68 0-107.46-38.89-99.66-78.74 3.47-17.76 22.78-32.07 40.59-29.06 24.58 4.15 32.77 34.48 59.07 34.48 31.14 0 47.59-56.14 85.89-26.8 7.03 5.39 12.06 12.61 13.78 21.38 7.79 39.88-56.01 78.74-99.66 78.74z"/><path d="m1798.91 1802h-132.62c-11.04 0-20-8.97-20-20v-167.68c0-26.33 39.99-26.31 39.99 0v167.68c0 11.03-8.97 20-20 20h-665.92c-11.04 0-20-8.97-20-20v-167.68c0-26.33 39.99-26.31 39.99 0v167.68c0 11.03-8.96 20-20 20h-132.63c-11.04 0-20-8.97-20-20v-242.86c0-121.88 99.17-221.05 221.06-221.05h29.37l48.65 195.33c2.19 9.03 10.28 15.3 19.45 15.3 5.9 0 57.63-19.56 91.05-32.33 2.33 15.9 8.08 23.43 21.41 26.87l-36.16 114.83c-1.96 6.23-.76 13 3.2 18.17l71.41 93.33c5.91 7.84 16 10.39 24.75 6.3 9.26-4.34 66.92-83.88 78.96-99.61 3.96-5.17 5.15-11.96 3.18-18.17l-36.01-114.34c11.85-3.77 20.67-14.37 21.83-27.17 33.45 12.78 84.64 32.12 90.49 32.12 9.2 0 17.27-6.36 19.44-15.32l48.07-194.55h30.74c121.46 0 220.28 98.82 220.28 220.28v242.85c0 11.04-8.97 20.01-20.01 20.01zm-388.5-348.14c.76-47.52 1.46-69.81-10.63-80.07 10.4-7.52 69.43-51.89 76.27-54.09l50.65-.84-40.44 163.25-75.84-28.25zm-270.99-135.76c24.01 0 48.72-4.15 59.89 5.52l68.37 50.04c-6.76 5.78-11.06 14.36-11.06 23.93 0 22.46-.43 41.03-.63 56.37l-75.6 28.16-40.98-164.03zm180.41 207.81c7.93-.07 16.86-.24 26.85-.39l36.12 114.71-49.48 64.68-49.5-64.7 36-114.3zm-23.21-40.66h73.38v-79.11h-73.38z"/><path d="m1482.25 1375.51c-59.83 0-105.99-176.12-30.2-172.11 55.24 2.91 16.12 65.1 57.43 110.91 21.21 23.52 4.44 61.21-27.23 61.21zm-297.06-.78c-31.65 0-48.42-37.72-27.21-61.23 40.94-45.37 2.72-110.76 58.15-113.02 75.5-3.1 28.78 174.26-30.94 174.26z"/><path d="m1078.71 1086.4c-78.32-49-94.2-123.15-25.17-184.39-188.74-275.05 93.22-503.48 165.94-357.31 251.51-183.97 516.89 55.06 392.99 345.49l-.02-.52c.14 3.84.26 7.64.35 11.39 69.97 61.18 54.99 135.85-24.02 185.32-22.74 293.61-486.56 283.01-510.05.03zm105.16-330.95c-12.79 79.35-56.31 111.46-56.11 163.46.13 33.17-45.7 40.92-44.37 68.49 1.57 32.83 67.76 36.59 67.76 77.23 0 212.74 365.13 227.26 365.13 0 0-40.65 66.18-44.39 67.75-77.22 1.31-27.49-44.38-35.34-44.38-68.34 0-59.53-7.28-145.65-40.03-200.39-96.25 67.88-212.36 99.64-315.74 36.78z"/></g></symbol><symbol id="messages" viewBox="0 0 2666.66 2666.66"><title>messages</title><circle cx="1333.33" cy="1333.33" fill="#f06730" r="1333.33"/><g fill="#fefefe"><path d="m1236.1 1924.82c-47.81 0-86.71-38.91-86.71-86.72v-599.06c0-114.12 173.42-114.12 173.42 0v599.04c0 47.82-38.9 86.74-86.71 86.74z"/><path d="m769.72 1353.52 393.35-131.34c67.52-22.68 8.74 633.83 6.31 633.83-8.49 0-359.95-119.09-399.69-132.37-18.3-6.11-15.22-365.04.02-370.13z"/><path d="m776.05 1724.67h-249.22c-25.74 0-46.68-20.96-46.68-46.69v-71.46h142.98c89.44 0 89.42-135.88 0-135.88h-142.98v-71.47c0-25.74 20.94-46.69 46.67-46.69h249.22c11.04 0 20 8.97 20 20v332.18c0 11.04-8.95 20.01-20 20.01zm-295.9-158.14v-55.89h142.98c36.78 0 36.79 55.89 0 55.89z"/><path d="m761.89 2049.21h-127.49c-9.64 0-17.91-6.89-19.67-16.37l-60.05-324.55c-4.79-25.86 34.52-33.22 39.33-7.28l88.18 7.26c-4.79-25.85 34.52-33.22 39.33-7.28l60.03 324.55c2.27 12.26-7.2 23.67-19.66 23.67z"/><path d="m1322.24 1692c-13.7 0-39.41 3.44-39.41-20 0-32.76 0-234.07 0-266.85 0-23.44 25.7-20 39.41-20 84.59 0 153.43 68.83 153.43 153.43s-68.84 153.41-153.43 153.41z"/><path d="m1467.88 1393.43c-12.89 0-22.64-12.25-19.36-24.98l35.72-139.05c-53.26.03-90.3-30.89-90.3-80.19l-.01-451.56c0-44.23 36-80.2 80.21-80.2h632.17c44.23 0 80.21 35.98 80.21 80.2v451.56c0 44.23-36 80.2-80.21 80.2h-357.01c-15.13 4.16-264.32 164.03-281.41 164.03zm554.16-341.63h-463.61c-26.33 0-26.31-39.99 0-39.99h463.61c26.32 0 26.33 39.99 0 39.99zm0-108.39h-463.61c-26.33 0-26.31-39.99 0-39.99h463.61c26.32 0 26.33 39.99 0 39.99zm0-108.37h-463.61c-26.33 0-26.31-40 0-40h463.61c26.32 0 26.33 40 0 40z"/></g></symbol><symbol id="camera" viewBox="0 0 2666.66 2666.66"><title>camera</title><circle cx="1333.33" cy="1333.33" fill="#ffb500" r="1333.33"/><g fill="#fefefe"><path d="m2186.54 1180.7v468.61h-389.05c99.63-140.11 98.8-329.64 0-468.61z"/><path d="m480.15 1649.3v-70.61h427.26c11.05 0 20-8.98 20-20v-287.37c0-11.03-8.96-20-20-20h-427.26v-70.63l657.76.01c-99.42 139.79-99.71 328.39.01 468.6zm332.68-159.67c-11.04 0-20-8.97-20-20v-109.25c0-26.33 39.99-26.31 39.99 0v109.25c0 11.03-8.96 20-20 20zm-109.06 0c-11.04 0-20-8.97-20-20v-109.25c0-26.33 39.99-26.31 39.99 0v109.25c-.01 11.03-8.95 20-20 20zm-109.05 0c-11.04 0-20-8.97-20-20v-109.25c0-26.33 39.99-26.31 39.99 0v109.25c-.01 11.03-8.95 20-20 20zm-114.57 49.05v-247.36h407.27v247.36z"/><path d="m1170.65 1140.7h-690.51v-99.92c0-102.22 83.17-185.39 185.39-185.39h1335.6c102.22 0 185.41 83.17 185.41 185.39v99.92l-421.8-.01c-160.44-173.6-433.65-173.59-594.09.01z"/><path d="m1105.11 1378.18c19.25-180.96 169.4-327.74 362.59-327.74 204.64 0 363.1 166.03 364.47 362.64 1.37 197.33-158.72 366.45-364.47 366.45-216.78 0-381.48-188.06-362.59-401.35zm362.59 311.13c-151.25 0-274.3-123.05-274.3-274.3s123.05-274.29 274.3-274.29c151.24 0 274.29 123.05 274.29 274.29s-123.06 274.3-274.29 274.3zm0-508.61c-129.2 0-234.31 105.11-234.31 234.31s105.11 234.3 234.31 234.3c129.19 0 234.28-105.09 234.28-234.29s-105.11-234.31-234.28-234.31zm146.27 254.31c-11.04 0-20-8.97-20-20 0-69.64-56.64-126.29-126.29-126.29-26.32 0-26.31-39.99 0-39.99 147.58 0 201.36 186.28 146.28 186.28z"/><path d="m2001.13 1974.61h-1335.6c-102.22 0-185.39-83.17-185.39-185.4v-99.9h690.5c160.44 173.63 433.68 173.62 594.12 0h421.78v99.92c-.02 102.2-83.19 185.39-185.41 185.39z"/><path d="m1603.15 939.4h-539.63c-20.23 0-36.66-16.43-36.66-36.67v-107.98c0-65.83 53.53-119.35 119.36-119.35l374.23-.01c65.83 0 119.37 53.53 119.37 119.36v107.98c0 20.24-16.43 36.67-36.68 36.67zm-502.96-73.31h466.3v-71.32c0-25.38-20.65-46.03-46.03-46.03h-374.23c-25.38 0-46.04 20.65-46.04 46.03z"/><path d="m1928.9 895.39h-179.14c-11.04 0-20-8.96-20-20v-98.28c0-11.04 8.97-20 20-20h179.14c11.04 0 20 8.96 20 20v98.28c0 11.06-8.96 20-20 20z"/><path d="m916.9 895.39h-179.13c-11.04 0-20-8.96-20-20v-98.28c0-11.04 8.96-20 20-20h179.13c11.04 0 20 8.96 20 20v98.28c0 11.06-8.96 20-20 20z"/></g></symbol><symbol id="magic-hat" viewBox="0 0 2666.66 2666.66"><title>magic-hat</title><circle cx="1333.33" cy="1333.33" fill="#ffb500" r="1333.33"/><g fill="#fefefe"><path d="m1072.48 1391.58c-332.24 0-592.49-98.93-592.49-225.22 0-117.76 216.41-209.53 514.04-223.37-.8 15.39 4.94 31.28 18.75 42.96l52.78 44.64-2.31 9.42c-467.02 3.89-463.4 252.8 11.04 252.8 364.88 0 461.69-151.97 245.84-220.65l-10.19-41.57c15.54-13.15 56.8-44.93 64.85-59.06 180.98 39.35 290.17 111.33 290.17 194.83-.01 126.3-260.26 225.22-592.48 225.22z"/><path d="m2166.66 795.33h-779.55v-142.03h779.55c11.04 0 20 8.96 20 20v102.04c0 11.03-8.96 19.98-20 19.98zm-819.56 0h-102.94c-93.46 0-93.46-142.03 0-142.03h102.94z"/><path d="m916.69 820.44c-12.8 0-22.54-12.08-19.42-24.76l21.37-87.2-68.54-57.98c-13.62-11.52-6.34-33.89 11.43-35.2l89.53-6.63 33.96-83.09c6.75-16.53 30.28-16.51 37.03 0l33.96 83.09 89.53 6.63c17.78 1.31 25.07 23.7 11.45 35.2l-68.54 57.98 21.37 87.2c4.25 17.31-14.8 31.16-29.94 21.76l-76.32-47.28c-13.72 8.5-75.46 50.28-86.87 50.28z"/><path d="m1100.9 1130.44c-12.81 0-22.52-12.08-19.42-24.76l21.38-87.2-68.54-57.98c-13.61-11.52-6.33-33.89 11.44-35.2l89.53-6.63 33.96-83.1c6.75-16.52 30.28-16.51 37.03 0l33.96 83.1 89.53 6.63c17.77 1.31 25.07 23.7 11.44 35.2l-68.54 57.98 21.38 87.2c4.26 17.33-14.8 31.16-29.95 21.76l-76.35-47.28c-13.67 8.46-75.51 50.28-86.85 50.28z"/><path d="m1072.01 1874.86c-153.05 0-306.05-32.61-458.15-97.81-3.06 85.9-10.59 173.91-22.59 264.45 319.09 149.3 642.4 149.3 961.48 0-12.17-91.81-19.66-179.65-22.42-264.54-152.13 65.26-305.24 97.9-458.31 97.9z"/><path d="m1072.01 1691.49c-153.17 0-306.3-32.66-458.55-97.98 1.83 44.55 2.38 89.61 1.65 135.26 303.36 134.96 610.78 134.88 914.15-.14-.52-46.01.38-91.2 2.72-135.72-152.7 65.72-306.36 98.58-459.96 98.58z"/><path d="m1072.01 1353.88c-199.34 0-375.5-31.85-495.98-83.17 17.32 89.18 28.92 179.91 34.82 272.8 306.8 137.72 617.67 137.42 924.41-.93 7.31-94.07 21.17-185.43 41.64-275.74-120.62 53.59-300.58 87.05-504.88 87.05z"/></g></symbol><symbol id="music-composition" viewBox="0 0 2666.66 2666.66"><title>music-composition</title><circle cx="1333.33" cy="1333.33" fill="#ff2e93" r="1333.33"/><g fill="#fefefe"><path d="m2079.63 2142.1c-7.44 0-14.29-4.04-17.91-10.54-9.38-16.88-60.28-104.24-80.69-145.29h197.17c-20.4 41.02-71.3 128.28-80.7 145.29-3.58 6.51-10.42 10.54-17.87 10.54zm-107.07-196.8v-729.54h214.1v729.54zm0-770.5v-34.3c0-59.02 48.03-107.05 107.06-107.05 59.02 0 107.05 48.03 107.05 107.05v34.3h-214.1z"/><path d="m714.36 584.66.01 1466.95c0 37.66-15.2 71.84-39.79 96.72h1073.96c36.56 0 66.32-29.74 66.32-66.31v-1466.98c0-37.66 15.2-71.83 39.78-96.72h-1073.95c-36.56 0-66.33 29.75-66.33 66.33zm435.72 273.37h347.53v-101.17h-347.53zm269.72 456.68c-65.49 0-118.78-53.29-118.78-118.78 0-101.74 120.19-156.06 196.61-89.67v-207.28h-347.54l-.44 307.12c-23.62 159.42-237.13 131.17-237.13-10.17 0-101.74 120.19-156.06 196.61-89.67v-369.89c0-11.3 9.18-20.48 20.48-20.48h388.49c11.3 0 20.48 9.18 20.48 20.48l-.4 469.59c-5.11 60.81-56.26 108.75-118.37 108.75zm0-196.61c-102.43 0-102.43 155.65 0 155.65 102.44 0 102.42-155.65 0-155.65zm-388.5 0c-102.43 0-102.43 155.65 0 155.65s102.43-155.65 0-155.65zm511.11 381.27h-540.37c-26.96 0-26.96-40.96 0-40.96h540.37c26.96 0 26.96 40.96 0 40.96zm115.8 225.69h-771.96c-26.96 0-26.96-40.96 0-40.96h771.96c26.96 0 26.96 40.96 0 40.96zm-115.8 225.68h-540.37c-26.96 0-26.96-40.96 0-40.96h540.37c26.96 0 26.96 40.96 0 40.96z"/><path d="m673.4 1852.93h-193.4v198.69c0 53.32 43.38 96.7 96.7 96.7s96.7-43.38 96.7-96.7z"/><path d="m1855.83 615.05v198.69h193.39v-198.69c0-53.34-43.38-96.72-96.7-96.72s-96.7 43.38-96.7 96.72z"/></g></symbol><symbol id="clapperboard" viewBox="0 0 2666.66 2666.66"><title>clapperboard</title><circle cx="1333.33" cy="1333.33" fill="#076e6d" r="1333.33"/><g fill="#fefefe"><path d="m2051.86 2186.66h-1286.49c-10.35 0-18.76-8.41-18.76-18.76v-817.43c6.19.5 12.44.76 18.76.76 46.61 0 90.05-5.13 126.47-28.85h1160.02c10.35 0 18.76 8.41 18.76 18.76v826.76c.01 10.35-8.41 18.76-18.76 18.76zm-192.09-164.1h-902.32c-10.35 0-18.76-8.41-18.76-18.76v-498.55c0-10.35 8.4-18.76 18.76-18.76h902.32c10.35 0 18.76 8.41 18.76 18.76v498.54c0 10.37-8.4 18.77-18.76 18.77z"/><path d="m737.07 896.89 250.06-84.68-24.24 236.87c-33.28-90.5-122.08-153.37-225.82-152.19zm289.13-97.91 112.61-38.13-27.37 267.76c-45.8 15.33-84.41 28.18-112.56 37.44l27.31-267.06zm151.68-51.37 112.68-38.16-27.43 268.21c-39.95 13.45-77.89 26.2-112.65 37.86zm151.75-51.39 112.75-38.18-27.46 268.45-112.73 38.02zm151.81-51.41 112.46-38.09-27.47 268.57-112.46 38 27.46-268.49zm151.53-51.31 112.6-38.13-27.48 268.62-112.6 38.1 27.47-268.59zm151.67-51.36 112.6-38.13-27.48 268.63-112.6 38.13zm151.67-51.36c18.9-6.4 45.23-20.54 53.07 1.89l68.69 196.37c3.43 9.8-1.9 20.47-11.87 23.84-18.62 6.29-68.52 23.2-137.36 46.52l27.48-268.62z"/><path d="m765.37 1359.91c-128.12 0-232.36-104.25-232.36-232.37s104.24-232.36 232.36-232.36 232.36 104.24 232.36 232.36-104.24 232.37-232.36 232.37z"/><path d="m976.45 1114.77h100.75l-112.15 243.23-224.88-.37c135.38 0 243.62-109.42 236.28-242.86zm142.05 0h119.14l-112.27 243.5-119.05-.2zm160.44 0h119.14l-112.39 243.76-119.05-.2 112.3-243.57zm160.44 0h119.14l-112.52 244.03-119.05-.2zm160.44 0h119.14l-112.64 244.3-119.05-.2zm160.44 0h119.14l-112.76 244.56-119.05-.2zm160.44 0h119.14l-112.88 244.83-119.05-.2zm160.44 0c21.93 0 52.53-5.29 52.53 18.76v207.62c0 10.35-8.56 18.76-19.1 18.76l-146.34-.24 112.91-244.89z" fill-rule="nonzero"/><path d="m1288.63 1626.81v255.41l221.18-127.71z"/><path d="m976.21 1524.02v461.01h864.8v-461.01zm274.91 390.7v-320.39c0-14.41 15.66-23.45 28.13-16.24l277.46 160.19c12.5 7.21 12.51 25.28 0 32.48l-277.46 160.19c-12.38 7.17-28.13-1.74-28.13-16.24z"/></g></symbol><symbol id="guitar" viewBox="0 0 2666.66 2666.66"><title>guitar</title><circle cx="1333.33" cy="1333.33" fill="#076e6d" r="1333.33"/><g fill="#fefefe"><path d="m871.28 2186.67c-346.28 0-522.44-421.58-276.5-667.53 132.2-132.2 167.2-46.04 330.64-209.5 92.04-92.05 231.18-115.13 347.45-59.72l416.06-416.06c7.74-7.74 20.29-7.74 28.02 0l116.11 116.11c7.74 7.74 7.74 20.26 0 27.99l-416.07 416.09c55.01 115.45 31.41 256.35-59.71 347.46-163.52 163.52-77.29 198.44-209.51 330.65-73.86 73.83-172.05 114.52-276.49 114.52zm32.33-231.07c-166.43 0-250.06-202.03-132.4-319.68 117.66-117.66 319.66-34.02 319.66 132.42 0 103.5-83.78 187.26-187.26 187.26zm359.46-357.81c-5.07 0-10.13-1.94-14-5.8l-169.12-169.1c-18.45-18.45 9.57-46.46 28-28.02l169.11 169.11c12.51 12.51 3.49 33.81-13.98 33.81z"/><path d="m1854.41 1007.26c-12.93 0-25.08-5.02-34.19-14.13l-146.43-146.43c-18.84-18.84-18.84-49.52 0-68.37l237.24-237.23c18.2-18.22 50.16-18.23 68.39 0l146.43 146.41c18.85 18.86 18.85 49.54-.02 68.39l-237.22 237.22c-9.11 9.13-21.24 14.13-34.2 14.13z"/><path d="m2150.26 892.41c-9.65 0-18.86-3.82-25.69-10.65l-76.31-76.31c-33.69-33.69 17.67-85.02 51.35-51.34l76.33 76.32c22.8 22.8 6.55 61.98-25.67 61.98zm-80.74 80.74c-9.65 0-18.86-3.81-25.68-10.64l-76.32-76.32c-33.68-33.68 17.67-85.02 51.35-51.33l76.32 76.32c22.8 22.8 6.55 61.98-25.67 61.98zm-80.74 80.73c-9.65 0-18.85-3.81-25.68-10.63l-76.32-76.32c-33.69-33.69 17.68-85.02 51.35-51.34l76.32 76.32c22.8 22.8 6.55 61.97-25.67 61.97zm-101.64-424.59c-9.65 0-18.86-3.82-25.68-10.64l-76.32-76.31c-33.69-33.69 17.68-85.01 51.35-51.33l76.32 76.31c22.8 22.8 6.55 61.98-25.67 61.98zm-80.75 80.73c-9.65 0-18.86-3.81-25.68-10.64l-76.31-76.32c-33.69-33.69 17.68-85.03 51.35-51.35l76.31 76.32c22.8 22.8 6.54 61.99-25.67 61.99zm-80.74 80.74c-9.65 0-18.86-3.82-25.68-10.64l-76.31-76.31c-33.68-33.68 17.67-85.02 51.35-51.34l76.31 76.31c22.8 22.8 6.54 61.98-25.67 61.98z"/></g></symbol><symbol id="video-camera-1" viewBox="0 0 2666.66 2666.66"><title>video-camera-1</title><circle cx="1333.33" cy="1333.33" fill="#f06730" r="1333.33"/><g fill="#fefefe"><path d="m1420.98 1500.54h-787.05c-27.14 0-49.2-22.08-49.2-49.22v-587.98c0-27.14 22.07-49.22 49.2-49.22h787.05c27.14 0 49.23 22.08 49.23 49.22v587.98c-.01 27.14-22.09 49.22-49.23 49.22zm-94.03-284.86h-241.06c-11.04 0-20-8.96-20-20v-241.06c0-11.04 8.96-20 20-20h241.04c11.04 0 20 8.96 20 20v241.04c0 11.06-8.94 20.02-19.98 20.02zm0 164.33h-598.98c-11.04 0-20-8.97-20-20v-67.56c0-11.04 8.96-20 20-20l598.96-.01c11.04 0 20 8.96 20 20v67.56c0 11.04-8.94 20-19.98 20zm-545.11-257.48c-97.22 0-97.24-147.74 0-147.74 97.22 0 97.2 147.74 0 147.74zm183.52 0c-97.2 0-97.22-147.74 0-147.74 97.24 0 97.21 147.74 0 147.74zm55.24 94.96h-279.41c-26.33 0-26.33-40 0-40h279.41c26.32 0 26.33 40 0 40z"/><path d="m1685.77 1408.31h-235.57c-11.04 0-20-8.97-20-20v-462c0-11.04 8.97-20 20-20h235.57c11.04 0 20 8.96 20 20v462c0 11.04-8.96 20-20 20z"/><path d="m1797.16 1365.41h-111.39c-11.04 0-20-8.97-20-20v-376.19c0-11.04 8.97-20 20-20h111.39c11.04 0 20 8.96 20 20v376.17c0 11.04-8.97 20.02-20 20.02z"/><path d="m2061.93 1478.63h-264.78c-11.04 0-20-8.97-20-20v-597.14c0-11.04 8.97-20 20-20h264.78c11.04 0 20 8.96 20 20v93.29h-129.18c-26.32 0-26.33 40 0 40h129.18v330.57h-129.18c-26.32 0-26.32 40 0 40h129.18v93.28c0 11.03-8.96 20-20 20z"/><path d="m1363.46 1594.59h-672.01c-11.04 0-20-8.97-20-20v-94.04c0-11.04 8.96-20 20-20h672.01c11.04 0 20 8.97 20 20v94.04c0 11.03-8.95 20-20 20z"/><path d="m1250.24 692.56h-612.75c-11.04 0-20-8.96-20-20v-122.35c0-11.04 8.96-20 20-20h612.75c11.04 0 20 8.96 20 20v122.35c0 11.05-8.96 20-20 20z"/><path d="m1406.38 742.78h-156.14c-11.04 0-20-8.96-20-20v-222.78c0-11.04 8.96-20 20-20h156.14c72.44 0 131.39 58.94 131.39 131.39 0 72.44-58.94 131.39-131.39 131.39z"/><path d="m997.28 870.77h-106.83c-20.24 0-36.67-16.43-36.67-36.67v-161.54c0-20.24 16.43-36.67 36.67-36.67h106.83c20.24 0 36.67 16.43 36.67 36.67v161.54c0 20.25-16.42 36.67-36.67 36.67zm-70.17-39.99h33.5v-154.89h-33.5z"/><path d="m1071 2186.66h-112.93c-11.04 0-20-8.97-20-20v-592.08c0-11.04 8.96-20 20-20h112.93c11.04 0 20 8.97 20 20v592.08c0 11.04-8.94 20-20 20z"/><path d="m1383.77 2186.66h-113.21c-8.58 0-16.21-5.49-18.96-13.61l-199.56-592.08c-4.36-12.93 5.3-26.4 18.94-26.4h112.94c8.58 0 16.21 5.48 18.96 13.61l200.87 598.47c.01 11.06-8.93 20.02-19.99 20.02z"/><path d="m758.53 2186.66h-112.93c-13.63 0-23.31-13.43-18.94-26.41l199.56-592.08c2.75-8.14 10.37-13.61 18.96-13.61h112.93c13.63 0 23.31 13.43 18.94 26.4l-199.54 592.08c-2.76 8.14-10.39 13.61-18.97 13.61z"/><path d="m1105.89 974.62v201.05h201.06v-201.05z"/><path d="m1306.95 1312.46-558.97-.01v27.56h558.97z"/><path d="m965.37 1014.8c-44.57 0-44.56 67.74 0 67.74 44.58 0 44.59-67.74 0-67.74z"/><path d="m781.84 1014.8c-44.59 0-44.57 67.74 0 67.74 44.56 0 44.58-67.74 0-67.74z"/></g></symbol><symbol id="marker" viewBox="0 0 2666.66 2666.66"><title>marker</title><circle cx="1333.33" cy="1333.33" fill="#743bbc" r="1333.33"/><g fill="#fefefe"><path d="m1753.18 2045.52c-6.11 0-11.94-2.85-15.71-7.64-59.84-75.98-143.44-107.69-254.6-96.85l491.5-491.49c-10.89 111.36 20.83 194.69 96.85 254.58 9.4 7.39 10.23 21.41 1.78 29.86l-305.7 305.7c-3.74 3.75-8.84 5.84-14.11 5.84zm-221.03-356.33c-5.11 0-10.24-1.96-14.15-5.87l-570.39-570.41c-7.82-7.8-7.82-20.47 0-28.28l170.37-170.37c7.82-7.82 20.47-7.82 28.28 0l570.41 570.41c7.83 7.82 7.83 20.48 0 28.29l-170.37 170.37c-3.9 3.9-9.03 5.87-14.15 5.87zm-86.72 232.68-736.39-736.4 509.76-509.76 736.4 736.39-509.78 509.77zm-764.66-764.68-93.19-93.19c-29.04-29.02-34.18-77.21-4.51-106.88l407.4-407.4c29.31-29.32 77.44-24.91 106.86 4.51l93.2 93.2z"/><path d="m2035.18 2186.65c-5.25 0-10.35-2.07-14.15-5.87l-211.57-211.57c-7.82-7.82-7.82-20.49 0-28.3l164.82-164.82c7.83-7.81 20.48-7.81 28.3 0l144.9 144.92c5.76 5.76 7.44 14.44 4.28 21.96l-98.14 231.48c-3.15 7.4-10.38 12.19-18.44 12.19z"/><path d="m621.51 966.99c-5.31 0-10.39-2.11-14.14-5.87l-72.89-72.89c-28.21-28.22-28.21-74.13 0-102.35l284.76-284.75c28.2-28.2 74.16-28.2 102.36 0l72.89 72.89c7.81 7.81 7.81 20.46 0 28.27l-358.85 358.82c-3.76 3.75-8.85 5.87-14.14 5.87z"/><path d="m1132.12 956.68-142.08 142.08 542.12 542.13 142.09-142.08z"/></g></symbol><symbol id="chat" viewBox="0 0 2666.66 2666.66"><title>chat</title><circle cx="1333.33" cy="1333.33" fill="#00b389" r="1333.33"/><g fill="#fefefe"><path d="m1704.07 2177.33h-834.52c-12.43 0-21.84-11.27-19.69-23.47 17.43-99.07 24.64-257.05-7.39-403.25-32.69-149.25-95.97-200.44-146.67-279.95l227.07-148.24h83.52v144.93c0 41.94 34.11 76.06 76.05 76.06h355.26c15.67 4.66 249.46 170.96 267.78 170.96 8 1.09 20.27-7.15 20.27-20.02l-48.29-150.94h49.54c41.94 0 76.06-34.12 76.06-76.06v-392.35c0-41.93-34.13-76.05-76.06-76.05h-266.38v-267.5c0-66.48-54.05-120.53-120.53-120.53h-412.72c301.83-202.05 740.53-145.53 975.44 123.61 124.31 142.42 176.03 325.71 149.77 530.44 13.89 23.8 67.59 114.63 106.35 163.59 56.82 71.77 20.36 124.2-61.26 123.73l-56.8 14.58c16.76 178.54 64.56 381.06-201.81 381.06h-114.98v209.4c.02 11.06-8.96 20.01-20 20.01zm-657.69-854.92v144.93c0 19.89 16.18 36.05 36.06 36.05h361.2c3.87 0 7.68 1.14 10.93 3.25l214.37 139.96-38.02-117.03c-4.2-12.9 5.44-26.19 19.01-26.19h77.07c19.89 0 36.06-16.17 36.06-36.05v-392.34c0-19.89-16.17-36.06-36.06-36.06h-266.39v162.94c0 66.48-54.06 120.53-120.53 120.53h-293.69z"/><path d="m593.05 1494.05c-13.34 0-23.22-13.24-19.03-26.19l58.11-178.8h-64.9c-48.08 0-87.2-39.11-87.2-87.2v-470.41c0-48.08 39.11-87.2 87.2-87.2h772.85c48.08 0 87.2 39.11 87.2 87.2v470.44c0 48.08-39.12 87.2-87.2 87.2h-427.13l-308.97 201.71c-3.32 2.17-7.12 3.26-10.93 3.26zm633.94-375.68h-546.66c-26.33 0-26.33-40 0-40h546.66c26.32 0 26.34 40 0 40zm0-131.72h-546.66c-26.33 0-26.33-40 0-40h546.66c26.32 0 26.34 40 0 40zm0-131.72h-546.66c-26.33 0-26.33-40 0-40h546.66c26.32 0 26.34 40 0 40z"/></g></symbol></svg>